<?xml version="1.0" standalone="no"?>
<!DOCTYPE svg PUBLIC "-//W3C//DTD SVG 1.1//EN" "http://www.w3.org/Graphics/SVG/1.1/DTD/svg11.dtd" >
<svg xmlns="http://www.w3.org/2000/svg">
<metadata>Generated by IcoMoon</metadata>
<defs>
<font id="icomoon" horiz-adv-x="1024">
<font-face units-per-em="1024" ascent="960" descent="-64" />
<missing-glyph horiz-adv-x="1024" />
<glyph unicode="&#x20;" horiz-adv-x="512" d="" />
<glyph unicode="&#xe900;" glyph-name="adjust" horiz-adv-x="1056" d="M992 960h-928c-32.483-6.322-57.678-31.517-63.917-63.492l-0.083-0.508v-896c6.322-32.483 31.517-57.678 63.492-63.917l0.508-0.083h928c32.483 6.322 57.678 31.517 63.917 63.492l0.083 0.508v896c-6.322 32.483-31.517 57.678-63.492 63.917l-0.508 0.083zM1024 0c-5.88-14.696-17.304-26.12-31.619-31.865l-0.381-0.135h-928c-14.696 5.88-26.12 17.304-31.865 31.619l-0.135 0.381v896c5.88 14.696 17.304 26.12 31.619 31.865l0.381 0.135h928c14.696-5.88 26.12-17.304 31.865-31.619l0.135-0.381zM528 784c-35.346 0-64-28.654-64-64s28.654-64 64-64c35.346 0 64 28.654 64 64v0c0 35.346-28.654 64-64 64v0zM528 688c-17.673 0-32 14.327-32 32s14.327 32 32 32c17.673 0 32-14.327 32-32v0c0-17.673-14.327-32-32-32v0zM784 272c-35.346 0-64-28.654-64-64s28.654-64 64-64c35.346 0 64 28.654 64 64v0c0 35.346-28.654 64-64 64v0zM784 176c-17.673 0-32 14.327-32 32s14.327 32 32 32c17.673 0 32-14.327 32-32v0c0-17.673-14.327-32-32-32v0zM272 432c-35.346 0-64-28.654-64-64s28.654-64 64-64c35.346 0 64 28.654 64 64v0c0 35.346-28.654 64-64 64v0zM272 336c-17.673 0-32 14.327-32 32s14.327 32 32 32c17.673 0 32-14.327 32-32v0c0-17.673-14.327-32-32-32v0zM272 480c8.837 0 16 7.163 16 16v0 288c0 8.837-7.163 16-16 16s-16-7.163-16-16v0-288c0-8.837 7.163-16 16-16v0zM272 256c-8.837 0-16-7.163-16-16v0-96c0-8.837 7.163-16 16-16s16 7.163 16 16v0 96c0 8.837-7.163 16-16 16v0zM528 608c-8.837 0-16-7.163-16-16v0-448c0-8.837 7.163-16 16-16s16 7.163 16 16v0 448c0 8.837-7.163 16-16 16v0zM784 320c8.837 0 16 7.163 16 16v0 448c0 8.837-7.163 16-16 16s-16-7.163-16-16v0-448c0-8.837 7.163-16 16-16v0z" />
<glyph unicode="&#xe901;" glyph-name="attachment" horiz-adv-x="896" d="M633.895 632.985l-64.967 64.916-324.58-324.58c-24.929-24.935-40.347-59.379-40.347-97.425 0-76.103 61.694-137.797 137.797-137.797 38.058 0 72.513 15.429 97.45 40.372l389.75 389.699c38.37 40.939 61.937 96.156 61.937 156.877 0 126.827-102.814 229.641-229.641 229.641-60.721 0-115.938-23.567-157.003-62.054l0.126 0.117-410.594-409.985c-57.944-57.956-93.782-138.016-93.782-226.445 0-176.885 143.393-320.278 320.278-320.278 88.455 0 168.535 35.859 226.496 93.832l0.001 0.001 0.811 0.862 279.342 279.291-64.967 64.916-280.153-280.052c-41.335-41.348-98.446-66.923-161.529-66.923-126.143 0-228.401 102.259-228.401 228.401 0 63.059 25.554 120.149 66.872 161.479l-0.001-0.001 0.913 0.811 409.275 409.174c24.938 24.944 59.392 40.373 97.45 40.373 76.103 0 137.797-61.694 137.797-137.797 0-38.045-15.418-72.49-40.347-97.425l-389.851-389.699c-8.083-7.256-18.825-11.693-30.604-11.693-25.349 0-45.898 20.549-45.898 45.898 0 11.829 4.475 22.613 11.824 30.751l-0.036-0.040 324.58 324.58z" />
<glyph unicode="&#xe902;" glyph-name="download-cloud" d="M469.333 426.667v-281.003l-97.835 97.835c-16.683 16.683-43.691 16.683-60.331 0s-16.683-43.691 0-60.331l170.667-170.667c3.925-3.925 8.619-7.083 13.824-9.259 10.453-4.309 22.229-4.309 32.683 0 5.035 2.091 9.728 5.163 13.824 9.259l170.667 170.667c16.683 16.683 16.683 43.691 0 60.331s-43.691 16.683-60.331 0l-97.835-97.835v281.003c0 23.552-19.115 42.667-42.667 42.667s-42.667-19.115-42.667-42.667zM915.413 131.926c57.813 40.661 93.696 100.992 104.96 165.461s-2.133 133.376-42.795 191.189c-35.2 50.091-85.248 83.755-140.245 99.157-22.443 6.272-45.739 9.515-69.163 9.6h-22.315c-30.805 87.808-91.179 158.293-166.699 203.008-84.523 50.005-188.245 67.797-290.944 41.472s-185.088-91.947-235.093-176.469-67.797-188.245-41.472-290.944c15.829-61.696 45.867-116.267 84.608-159.317 15.787-17.493 42.752-18.944 60.245-3.157s18.944 42.752 3.157 60.245c-29.525 32.811-52.992 75.093-65.408 123.435-20.523 79.915-6.699 160.469 32.256 226.304s102.912 116.736 182.827 137.216 160.469 6.699 226.304-32.256 116.736-102.912 137.216-182.827c4.949-18.56 21.589-32.043 41.387-32.043h53.589c15.787-0.043 31.445-2.219 46.507-6.443 36.736-10.283 69.931-32.64 93.44-66.048 27.136-38.571 36.053-84.395 28.544-127.488s-31.403-83.2-69.973-110.293c-19.285-13.568-23.893-40.149-10.368-59.435s40.149-23.893 59.435-10.368z" />
<glyph unicode="&#xe903;" glyph-name="browser" horiz-adv-x="1344" d="M1328.003 640.010c-8.919 0-16.149-7.23-16.149-16.149v0-639.859c0-8.919-7.23-16.149-16.149-16.149h-1247.702c-8.919 0-16.149 7.23-16.149 16.149v0 640.020c-1.089 7.954-7.84 14.017-16.008 14.017s-14.918-6.063-15.998-13.933l-0.009-0.084v-640.020c0.023-26.502 21.501-47.98 48-48.003h1248.108c26.502 0.023 47.98 21.501 48.003 48v640.022c-0.090 8.779-7.171 15.875-15.936 15.987h-0.011zM1295.947 960h-1247.945c-26.502-0.023-47.98-21.501-48.003-48v-192.012c0-8.919 7.23-16.149 16.149-16.149v0h1312.096c8.919 0 16.149 7.23 16.149 16.149v0 192.010c-0.022 26.517-21.523 48.004-48.043 48.004-0.142 0-0.284-0.001-0.425-0.002h0.022zM1312.096 736.015h-1280.081v175.982c0 8.919 7.23 16.149 16.149 16.149v0h1247.783c8.919 0 16.149-7.23 16.149-16.149v0zM560.003 64.020c8.919 0 16.149 7.23 16.149 16.149v0 511.839c0 8.919-7.23 16.149-16.149 16.149v0h-415.995c-8.919 0-16.149-7.23-16.149-16.149v-512.121c0-8.919 7.23-16.149 16.149-16.149v0zM159.995 576.020h383.98v-479.985h-383.98zM719.997 480.015h479.985c0.64-0.090 1.38-0.141 2.132-0.141 8.919 0 16.149 7.23 16.149 16.149s-7.23 16.149-16.149 16.149c-0.752 0-1.491-0.051-2.216-0.151l0.084 0.009h-479.985c-0.64 0.090-1.38 0.141-2.132 0.141-8.919 0-16.149-7.23-16.149-16.149s7.23-16.149 16.149-16.149c0.752 0 1.491 0.051 2.216 0.151l-0.084-0.009zM719.997 320.020h479.985c0.64-0.090 1.38-0.141 2.132-0.141 8.919 0 16.149 7.23 16.149 16.149s-7.23 16.149-16.149 16.149c-0.752 0-1.491-0.051-2.216-0.151l0.084 0.009h-479.985c-0.64 0.090-1.38 0.141-2.132 0.141-8.919 0-16.149-7.23-16.149-16.149s7.23-16.149 16.149-16.149c0.752 0 1.491 0.051 2.216 0.151l-0.084-0.009zM719.997 160.025h479.985c0.64-0.090 1.38-0.141 2.132-0.141 8.919 0 16.149 7.23 16.149 16.149s-7.23 16.149-16.149 16.149c-0.752 0-1.491-0.051-2.216-0.151l0.084 0.009h-479.985c-7.954-1.089-14.017-7.84-14.017-16.008s6.063-14.918 13.933-15.998l0.084-0.009zM96.005 832.020c0-17.681 14.334-32.015 32.015-32.015s32.015 14.334 32.015 32.015c0 17.681-14.334 32.015-32.015 32.015v0c-17.681 0-32.015-14.334-32.015-32.015v0zM223.985 832.020c0-17.681 14.334-32.015 32.015-32.015s32.015 14.334 32.015 32.015c0 17.681-14.334 32.015-32.015 32.015v0c-17.681 0-32.015-14.334-32.015-32.015v0zM351.965 832.020c0-17.681 14.334-32.015 32.015-32.015s32.015 14.334 32.015 32.015c0 17.681-14.334 32.015-32.015 32.015v0c-17.664-0.023-31.975-14.348-31.975-32.015 0 0 0 0 0 0v0z" />
<glyph unicode="&#xe904;" glyph-name="chevron-circle-right" d="M512 960c282.77 0 512-229.23 512-512s-229.23-512-512-512c-282.77 0-512 229.23-512 512v0c0 0.020 0 0.043 0 0.066 0 282.733 229.201 511.934 511.934 511.934 0.023 0 0.046 0 0.070 0h-0.004zM747.154 483.085l-279.753 279.753c-8.94 8.983-21.314 14.542-34.986 14.542s-26.046-5.559-34.984-14.54l-35.087-35.087c-8.983-8.94-14.542-21.314-14.542-34.986s5.559-26.046 14.54-34.984l209.784-209.784-209.782-209.782c-8.983-8.94-14.542-21.314-14.542-34.986s5.559-26.046 14.54-34.984l35.087-35.087c8.94-8.983 21.314-14.542 34.986-14.542s26.046 5.559 34.984 14.54l279.755 279.755c8.978 8.979 14.531 21.384 14.531 35.085s-5.553 26.105-14.531 35.085v0z" />
<glyph unicode="&#xe905;" glyph-name="chevron-thin-down" horiz-adv-x="1914" d="M1782.714 937.603c13.989 13.827 33.228 22.369 54.462 22.369s40.474-8.541 54.47-22.376l-0.007 0.007c13.949-13.725 22.592-32.806 22.592-53.906s-8.643-40.181-22.582-53.896l-0.010-0.010-880.089-871.395c-13.989-13.827-33.228-22.369-54.462-22.369s-40.474 8.541-54.47 22.376l0.007-0.007-880.089 871.395c-13.915 13.741-22.533 32.817-22.533 53.906s8.618 40.165 22.525 53.898l0.008 0.008c13.989 13.827 33.228 22.369 54.462 22.369s40.474-8.541 54.47-22.376l-0.007 0.007 825.696-794.744 825.488 794.744z" />
<glyph unicode="&#xe906;" glyph-name="collapse" horiz-adv-x="1017" d="M292.903 794.718l-165.329 165.377-127.574-127.668 165.329-165.282-123.973-123.926 373.223-0.189-0.805 372.56-120.799-120.799zM851.896 667.144l165.329 165.282-127.503 127.668-165.329-165.282-120.799 120.799-0.876-372.631 373.223 0.237zM165.282 228.95l-165.282-165.377 127.574-127.574 165.329 165.282 120.799-120.799 0.805 372.607-373.223-0.189zM975.87 352.924l-373.152 0.118 0.805-372.607 120.799 120.799 165.329-165.282 127.574 127.574-165.329 165.282 123.973 123.973z" />
<glyph unicode="&#xe907;" glyph-name="document" horiz-adv-x="768" d="M48-64h672c26.51 0 48 21.49 48 48v0 672c0 0.544-0.256 0.992-0.288 1.504-0.102 0.796-0.248 1.501-0.441 2.185l0.025-0.105c-0.54 2.342-1.54 4.394-2.906 6.147l0.026-0.035c-0.224 0.288-0.192 0.64-0.416 0.928l-256 288s-0.224 0-0.32 0.192c-1.904 1.988-4.315 3.477-7.024 4.26l-0.112 0.028c-0.509 0.151-1.117 0.275-1.74 0.347l-0.052 0.005c-0.787 0.24-1.721 0.431-2.68 0.537l-0.072 0.007h-448c-26.51 0-48-21.49-48-48v0-928c0-26.51 21.49-48 48-48v0zM512 901.92l204.384-229.92h-188.384c-7.040 0-16 13.44-16 24zM32 912c0 8.837 7.163 16 16 16v0h432v-232c-0.006-0.295-0.009-0.642-0.009-0.99 0-28.014 20.748-51.182 47.715-54.976l0.294-0.034h208v-656c0-8.837-7.163-16-16-16v0h-672c-8.837 0-16 7.163-16 16v0zM176 512h416c8.837 0 16 7.163 16 16s-7.163 16-16 16v0h-416c-8.837 0-16-7.163-16-16s7.163-16 16-16v0zM176 384h416c8.837 0 16 7.163 16 16s-7.163 16-16 16v0h-416c-8.837 0-16-7.163-16-16s7.163-16 16-16v0zM176 640h192c8.837 0 16 7.163 16 16s-7.163 16-16 16v0h-192c-8.837 0-16-7.163-16-16s7.163-16 16-16v0zM176 256h416c8.837 0 16 7.163 16 16s-7.163 16-16 16v0h-416c-8.837 0-16-7.163-16-16s7.163-16 16-16v0zM176 128h416c8.837 0 16 7.163 16 16s-7.163 16-16 16v0h-416c-8.837 0-16-7.163-16-16s7.163-16 16-16v0z" />
<glyph unicode="&#xe908;" glyph-name="documents" horiz-adv-x="1088" d="M48.384 64h575.616c26.51 0 48 21.49 48 48v0 608c-0.102 0.796-0.248 1.501-0.441 2.185l0.025-0.105c-0.102 0.758-0.248 1.43-0.441 2.080l0.025-0.096c-0.668 2.843-2.034 5.301-3.91 7.27l-223.994 223.994c-1.977 1.846-4.429 3.207-7.153 3.881l-0.111 0.023c-0.554 0.168-1.226 0.314-1.913 0.408l-0.071 0.008c-0.567 0.149-1.253 0.273-1.953 0.347l-0.063 0.005h-383.808c-0.010 0-0.021 0-0.032 0-26.542 0-48.069-21.471-48.16-47.991v-800.009c0.145-26.541 21.694-48 48.255-48 0.045 0 0.090 0 0.136 0h-0.007zM448 905.376l169.376-169.376h-153.376c-8.837 0-16 7.163-16 16v0 153.376zM32 912c0 0 0 0.001 0 0.001 0 8.837 7.163 16 16 16 0.068 0 0.135 0 0.202-0.001h367.798v-176c0-26.51 21.49-48 48-48v0h176v-592c0-8.837-7.163-16-16-16v0h-575.616c-0.057-0.001-0.125-0.001-0.193-0.001-8.875 0-16.083 7.141-16.191 15.991v800.010zM144 576h384c8.837 0 16 7.163 16 16s-7.163 16-16 16v0h-384c-8.837 0-16-7.163-16-16s7.163-16 16-16v0zM144 448h384c8.837 0 16 7.163 16 16s-7.163 16-16 16v0h-384c-8.837 0-16-7.163-16-16s7.163-16 16-16v0zM144 704h160c8.837 0 16 7.163 16 16s-7.163 16-16 16v0h-160c-8.837 0-16-7.163-16-16s7.163-16 16-16v0zM144 320h384c8.837 0 16 7.163 16 16s-7.163 16-16 16v0h-384c-8.837 0-16-7.163-16-16s7.163-16 16-16v0zM144 192h384c8.837 0 16 7.163 16 16s-7.163 16-16 16v0h-384c-8.837 0-16-7.163-16-16s7.163-16 16-16v0zM688 800h144v-176c0-26.51 21.49-48 48-48v0h176v-592c0-8.837-7.163-16-16-16v0h-575.616c-0.057-0.001-0.125-0.001-0.193-0.001-8.875 0-16.083 7.141-16.191 15.991v32.010c0 8.837-7.163 16-16 16s-16-7.163-16-16v0-32c0.145-26.541 21.694-48 48.255-48 0.045 0 0.090 0 0.136 0h575.609c26.51 0 48 21.49 48 48v0 608c-0.102 0.796-0.248 1.501-0.441 2.185l0.025-0.105c-0.102 0.759-0.248 1.43-0.441 2.081l0.025-0.097c-0.668 2.843-2.034 5.301-3.91 7.27l-223.994 223.994c-1.973 1.87-4.443 3.237-7.19 3.883l-0.106 0.021c-0.549 0.16-1.211 0.294-1.888 0.378l-0.064 0.006c-0.563 0.157-1.247 0.292-1.946 0.377l-0.070 0.007h-160c-8.837 0-16-7.163-16-16s7.163-16 16-16v0zM880 608c-8.837 0-16 7.163-16 16v0 153.376l169.376-169.376zM752 448h192c8.837 0 16 7.163 16 16s-7.163 16-16 16v0h-192c-8.837 0-16-7.163-16-16s7.163-16 16-16v0zM752 320h192c8.837 0 16 7.163 16 16s-7.163 16-16 16v0h-192c-8.837 0-16-7.163-16-16s7.163-16 16-16v0zM752 192h192c8.837 0 16 7.163 16 16s-7.163 16-16 16v0h-192c-8.837 0-16-7.163-16-16s7.163-16 16-16v0zM752 64h192c8.837 0 16 7.163 16 16s-7.163 16-16 16v0h-192c-8.837 0-16-7.163-16-16s7.163-16 16-16v0z" />
<glyph unicode="&#xe909;" glyph-name="upload-cloud" d="M469.333 323.67v-281.003c0-23.552 19.115-42.667 42.667-42.667s42.667 19.115 42.667 42.667v281.003l97.835-97.835c16.683-16.683 43.691-16.683 60.331 0s16.683 43.691 0 60.331l-170.667 170.667c-3.925 3.925-8.619 7.083-13.824 9.259s-10.795 3.243-16.341 3.243c-10.923 0-21.845-4.181-30.165-12.501l-170.667-170.667c-16.683-16.683-16.683-43.691 0-60.331s43.691-16.683 60.331 0zM890.411 116.566c62.037 33.835 104.576 89.685 123.051 152.491s13.013 132.779-20.821 194.816c-28.971 53.12-74.112 91.947-126.251 113.621-30.891 12.843-64.213 19.627-98.091 19.84h-22.485c-30.933 87.765-91.477 158.208-167.125 202.752-84.608 49.835-188.373 67.456-291.029 40.917s-184.875-92.245-234.752-176.853-67.456-188.373-40.917-291.029c15.872-61.312 45.781-115.584 84.267-158.421 15.744-17.536 42.752-18.944 60.245-3.2s18.944 42.752 3.2 60.245c-29.355 32.64-52.693 74.667-65.109 122.752-20.651 79.872-6.997 160.469 31.829 226.347s102.699 116.907 182.571 137.557 160.469 6.997 226.347-31.829 116.907-102.699 137.557-182.571c4.949-18.56 21.589-32 41.344-32h53.461c22.869-0.171 45.269-4.736 65.92-13.312 34.773-14.464 64.725-40.235 84.053-75.648 22.571-41.387 26.24-87.936 13.867-129.877s-40.661-79.104-82.048-101.632c-20.693-11.264-28.331-37.205-17.024-57.899s37.205-28.331 57.899-17.024z" />
<glyph unicode="&#xe90b;" glyph-name="dropbox" horiz-adv-x="1207" d="M604.323 767.3l-301.714-192.661 301.714-192.7-301.714-192.661-302.609 194.49 302.415 192.7-302.415 190.833 302.415 192.7zM300.858 128.661l301.714 192.7 301.714-192.7-301.792-192.661zM604.323 383.728l301.714 192.7-301.714 191.066 300.119 192.506 302.415-192.7-302.415-192.7 302.415-192.467-302.415-192.467-300.119 194.295z" />
<glyph unicode="&#xe90c;" glyph-name="envelope" horiz-adv-x="1216" d="M641.825 947.206c-8.998 7.954-20.896 12.811-33.928 12.811s-24.93-4.856-33.983-12.858l0.055 0.048-566.238-341.634c-4.704-2.832-7.812-7.898-7.849-13.691v-605.763c0.111-27.703 22.595-50.117 50.313-50.117 0.028 0 0.055 0 0.083 0h1115.164c0.023 0 0.051 0 0.079 0 27.718 0 50.201 22.414 50.313 50.106v605.769c-0.038 5.799-3.145 10.864-7.777 13.656l-0.072 0.040-566.159 341.634zM592.179 920.715c1.142 0.703 2.132 1.481 3.025 2.357l-0.003-0.003c3.28 3.277 7.81 5.303 12.814 5.303s9.533-2.027 12.814-5.304v0c0.894-0.865 1.883-1.642 2.947-2.311l0.075-0.044 551.403-332.765-399.482-238.025c-4.732-2.84-7.849-7.944-7.849-13.775 0-8.843 7.169-16.012 16.012-16.012 0.014 0 0.028 0 0.042 0h-0.002c0.026 0 0.056 0 0.086 0 2.983 0 5.772 0.832 8.146 2.277l-0.069-0.039 392.026 233.394v-568.553l-542.141 360.747c-9.588 6.512-21.418 10.397-34.155 10.397-12.233 0-23.629-3.583-33.196-9.758l0.241 0.146-543.24-361.296v568.318l391.987-233.394c2.206-1.22 4.837-1.938 7.636-1.938 8.843 0 16.012 7.169 16.012 16.012 0 5.58-2.855 10.494-7.184 13.36l-0.060 0.037-399.522 238.104 551.638 332.765zM1155.002-32.015h-1094.446l533.193 354.899c4.078 2.026 8.881 3.212 13.961 3.212 5.679 0 11.012-1.482 15.633-4.080l-0.16 0.083 531.819-354.114zM207.571 544.231h800.613c8.843 0 16.012 7.169 16.012 16.012s-7.169 16.012-16.012 16.012v0h-800.613c-8.843 0-16.012-7.169-16.012-16.012s7.169-16.012 16.012-16.012v0z" />
<glyph unicode="&#xe90d;" glyph-name="facebook-f" horiz-adv-x="548" d="M512.438 384.007l28.445 185.334h-177.828v120.235c-0.234 2.469-0.367 5.339-0.367 8.241 0 51.178 41.488 92.667 92.667 92.667 4.297 0 8.526-0.293 12.668-0.859l-0.481 0.054h80.671v157.8c-42.58 7.251-92.101 11.776-142.539 12.513l-0.741 0.009c-146.436 0-242.014-88.774-242.014-249.45v-141.245h-162.921v-185.334h162.781v-448.147h200.346v448.182z" />
<glyph unicode="&#xe90e;" glyph-name="file-empty" horiz-adv-x="896" d="M853.804 730.914c-27.796 36.716-56.357 69.254-87.073 99.618l-0.086 0.085c-30.441 30.825-62.981 59.387-97.458 85.527l-2.245 1.632c-51.61 37.744-76.608 42.224-90.945 42.224h-496.006c-44.157-0.051-79.94-35.834-79.991-79.986v-864.023c0.064-44.152 35.839-79.927 79.985-79.991h736.030c44.152 0.064 79.927 35.839 79.991 79.985v624.007c0 14.336-4.48 39.357-42.202 90.922zM721.285 785.279c25.342-25.084 49.094-51.626 71.178-79.547l1.398-1.833h-153.867v154.046c29.707-23.502 56.22-47.281 81.202-72.576l0.088-0.090zM831.919 15.901c-0.124-8.783-7.211-15.869-15.982-15.994h-735.946c-8.783 0.124-15.869 7.211-15.994 15.982v864.12c0.124 8.783 7.211 15.869 15.982 15.994h496.018v-224.001c0-17.679 14.331-32.010 32.010-32.010v0h224.001z" />
<glyph unicode="&#xe90f;" glyph-name="file-picture" horiz-adv-x="896" d="M768.006 63.975h-640.008v128.020l191.996 319.993 263.006-319.993 184.984 127.997zM768.006 479.999c0-53.024-42.985-96.009-96.009-96.009s-96.009 42.985-96.009 96.009c0 53.024 42.985 96.009 96.009 96.009 0.008 0 0.016 0 0.024 0h-0.001c53.012 0 95.987-42.975 95.987-95.987 0-0.008 0-0.016 0-0.024v0.001zM853.8 730.909c-27.797 36.717-56.358 69.256-87.075 99.62l-0.086 0.085c-30.441 30.825-62.982 59.388-97.46 85.529l-2.245 1.632c-51.611 37.745-76.588 42.225-90.924 42.225h-496.017c-44.158-0.051-79.942-35.835-79.993-79.988v-864.020c0.064-44.153 35.84-79.929 79.987-79.993h736.024c44.163 0.051 79.951 35.832 80.015 79.987v624.020c0 14.336-4.48 39.358-42.203 90.902zM721.3 785.275c25.343-25.085 49.095-51.628 71.18-79.549l1.398-1.833h-153.87v154.049c29.707-23.502 56.221-47.282 81.204-72.578l0.088-0.090zM831.915 15.903c-0.124-8.783-7.211-15.87-15.982-15.994h-735.94c-8.783 0.124-15.87 7.211-15.994 15.982v864.116c0.124 8.783 7.211 15.87 15.982 15.994h496.029v-224.006c0-17.679 14.332-32.011 32.011-32.011v0h224.006z" />
<glyph unicode="&#xe910;" glyph-name="file-play" horiz-adv-x="896" d="M305.023 601.15l346.956-242.862-346.956-242.885zM853.804 730.914c-27.796 36.716-56.357 69.254-87.073 99.618l-0.086 0.085c-30.441 30.825-62.981 59.387-97.458 85.527l-2.245 1.632c-51.61 37.744-76.608 42.224-90.945 42.224h-496.006c-44.157-0.051-79.94-35.834-79.991-79.986v-864.023c0.064-44.152 35.839-79.927 79.985-79.991h736.030c44.152 0.064 79.927 35.839 79.991 79.985v624.007c0 14.336-4.48 39.357-42.202 90.922zM721.285 785.279c25.342-25.084 49.094-51.626 71.178-79.547l1.398-1.833h-153.867v154.046c29.707-23.501 56.22-47.281 81.202-72.577l0.088-0.090zM831.919 15.901c-0.124-8.783-7.211-15.869-15.982-15.994h-735.946c-8.783 0.124-15.869 7.211-15.994 15.982v864.12c0.124 8.783 7.211 15.869 15.982 15.994h496.018v-224.001c0-17.679 14.331-32.010 32.010-32.010v0h224.001z" />
<glyph unicode="&#xe911;" glyph-name="files" horiz-adv-x="818" d="M449.168 466.544h-328.067v-37.163h328.067zM449.168 343.517h-328.067v-39.687h328.067zM245.438 960v-123.682h-124.337v-123.682h-121.101v-776.636h572.868v124.299h121.101v120.484h123.682v779.18h-572.214zM533.125-24.219h-493.381v699.73h493.381zM654.226 97.537h-81.357v615.137h-412.024v83.938h493.381v-699.075zM777.908 220.564h-83.938v615.791h-408.826v83.938h492.764zM449.168 98.098h-328.067v-39.65h328.067zM449.168 221.742h-328.067v-39.744h328.067zM449.785 590.918h-328.067v-41.015h328.067z" />
<glyph unicode="&#xe912;" glyph-name="focus" horiz-adv-x="1344" d="M272.011 960h-224.009c-26.501-0.024-47.978-21.501-48.002-48v-192.010c0-8.837 7.164-16.001 16.001-16.001s16.001 7.164 16.001 16.001v0 192.008c0.024 8.827 7.173 15.977 15.998 16.001h224.011c8.837 0 16.001 7.164 16.001 16.001s-7.164 16.001-16.001 16.001v0zM1295.969 960h-223.967c-8.837 0-16.001-7.164-16.001-16.001s7.164-16.001 16.001-16.001v0h224.009c8.827-0.024 15.977-7.173 16.001-15.998v-192.010c0-8.837 7.164-16.001 16.001-16.001s16.001 7.164 16.001 16.001v0 192.008c-0.024 26.516-21.525 48.002-48.044 48.002v0zM1327.97 191.798c-8.837 0-16.001-7.164-16.001-16.001v0-191.966c-0.024-8.827-7.173-15.977-15.998-16.001h-223.969c-8.837 0-16.001-7.164-16.001-16.001s7.164-16.001 16.001-16.001v0h224.009c26.483 0.048 47.935 21.516 47.96 48v192.18c-0.12 8.745-7.237 15.788-15.999 15.788 0 0-0.001 0-0.001 0v0zM16.001 191.798c0 0-0.001 0-0.001 0-8.762 0-15.88-7.043-15.999-15.777v-192.189c0.024-26.501 21.501-47.978 48-48.002h224.012c8.837 0 16.001 7.164 16.001 16.001s-7.164 16.001-16.001 16.001v0h-224.009c-8.827 0.024-15.977 7.173-16.001 15.998v192.18c-0.12 8.745-7.237 15.788-15.999 15.788 0 0-0.001 0-0.001 0v0zM751.989 351.805c8.837 0 16.001 7.164 16.001 16.001v0 160.007c0 8.837-7.164 16.001-16.001 16.001v0h-160.007c-8.837 0-16.001-7.164-16.001-16.001v0-160.007c0-8.837 7.164-16.001 16.001-16.001v0zM607.983 511.812h128.005v-128.005h-128.005z" />
<glyph unicode="&#xe913;" glyph-name="google-plus-g" horiz-adv-x="1638" d="M995.37 521.272c5.321-25.504 8.368-54.813 8.368-84.832 0-0.134 0-0.268 0-0.401v0.021c0-292.681-196.297-500.15-491.737-500.15-282.77 0-512 229.23-512 512s229.23 512 512 512v0c1.919 0.027 4.185 0.043 6.455 0.043 130.422 0 248.92-51.051 336.601-134.261l-0.215 0.203-138.991-133.428c-51.438 48.906-121.171 78.99-197.93 78.99-2.129 0-4.253-0.023-6.371-0.069l0.316 0.005c-175.333-4.278-315.833-147.427-315.833-323.392s140.5-319.114 315.436-323.385l0.397-0.008c5.683-0.415 12.312-0.651 18.997-0.651 133.35 0 244.715 94.125 271.283 219.561l0.321 1.812h-290.465v175.943h483.37zM1489.775 504.085v148.715h-149.258v-148.625h-148.67v-149.258h148.625v-148.625h149.258v148.534h148.625v149.258z" />
<glyph unicode="&#xe914;" glyph-name="images" horiz-adv-x="1152" d="M1088.010 832.007h-64.010v63.983c-0.105 35.309-28.701 63.905-64 64.010h-895.99c-35.309-0.105-63.905-28.701-64.010-64v-767.997c0.105-35.309 28.701-63.905 64-64.010h63.993v-64.010c0.105-35.309 28.701-63.905 64-64.010h896.017c35.309 0.105 63.905 28.701 64.010 64v768.023c-0.105 35.309-28.701 63.905-64 64.010h-0.010zM127.993 767.997v-639.993h-63.878s0 0 0 0v767.696s0 0 0 0h895.795s0 0 0 0v-63.666h-767.881c-35.309-0.105-63.905-28.701-64.010-64v-0.010zM1088.010 0.142s0 0 0 0h-895.927s0 0 0 0v767.696s0 0 0 0h895.795s0 0 0 0zM959.99 608.025c0-53.013-42.975-95.988-95.988-95.988s-95.988 42.975-95.988 95.988c0 53.004 42.96 95.973 95.96 95.988h0.001c0.008 0 0.017 0 0.026 0 53.013 0 95.988-42.975 95.988-95.988v0zM1023.974 63.993h-767.987v127.993l224.008 384.007 255.987-319.997h64.010l224.008 192.003z" />
<glyph unicode="&#xe915;" glyph-name="lamp5" horiz-adv-x="731" d="M445.307 515.836c-57.12-19.238-183.789 27.875-183.789 27.875-148.42 66.579 55.749-207.734 55.749-207.734s4.25-85.634 29.931-96.281c214.177 224.504 155.366 295.378 98.109 276.14zM368.218 302.938c-17.319 0-90.112 163.454-81.522 197.681 57.166-4.295 110.081-20.426 141.657-7.586 88.513 30.022-40.030-190.095-59.999-190.095zM546.066 176.132c5.255 249.911 184.977 346.055 184.977 494.841 0 126.989-116.068 289.027-359.627 289.027s-371.508-155.046-371.508-290.215c0-151.756 182.464-247.078 182.464-495.207h184.749s173.645 1.554 178.854 1.554zM219.66 207.845c0 231.587-176.752 320.603-176.752 462.214 0 126.166 114.697 258.456 327.777 258.456s317.495-138.87 317.495-257.359c0-138.87-174.284-230.627-178.945-463.814l-142.16 0.548h-147.415zM525.823 139.621h-319.871c-12.612 0-22.848-7.677-22.848-17.090s10.236-17.090 22.848-17.090h319.871c12.566 0 22.848 7.677 22.848 17.090s-10.464 17.136-23.259 17.136zM525.823 71.077h-319.871c-12.612 0-22.848-7.677-22.848-17.090s10.236-17.090 22.848-17.090h319.871c12.566 0 22.848 7.677 22.848 17.090s-10.464 17.273-23.259 17.273zM228.388 1.802v-30.799c2.949-20.073 20.052-35.309 40.713-35.309 1.627 0 3.232 0.094 4.809 0.278l-0.192-0.018h184.063c1.386-0.166 2.991-0.26 4.618-0.26 20.661 0 37.764 15.236 40.686 35.085l0.027 0.224c0.015 0.768 0.024 1.673 0.024 2.581 0 9.989-1.040 19.735-3.018 29.135l0.162-0.917h-271.891z" />
<glyph unicode="&#xe916;" glyph-name="layers" horiz-adv-x="1018" d="M973.647 729.249l-370.918 209.35c-27.457 13.495-59.762 21.387-93.91 21.387s-66.454-7.893-95.191-21.953l1.28 0.566-370.918-209.35c-24.734-11.304-42.022-35.026-43.946-62.974l-0.013-0.232c1.942-28.17 19.229-51.881 43.492-62.983l0.466-0.191 370.918-209.382c26.136-13.971 57.168-22.177 90.117-22.177 1.339 0 2.676 0.014 4.008 0.041l-0.199-0.003c1.115-0.023 2.429-0.036 3.747-0.036 32.966 0 64.019 8.193 91.233 22.654l-1.053-0.511 370.918 209.382c24.747 11.279 42.050 34.996 43.978 62.942l0.013 0.233c-1.965 28.179-19.257 51.894-43.524 63.015l-0.467 0.192zM956.744 632.848l-370.789-209.479c-22.599-10.645-49.086-16.859-77.024-16.859s-54.425 6.214-78.154 17.334l1.13-0.476-371.046 209.382c-16.838 9.64-26.478 21.658-26.478 33.29s9.64 23.779 26.478 33.322l370.853 209.382c21.403 11.163 46.742 17.712 73.611 17.712 1.234 0 2.465-0.014 3.692-0.041l-0.183 0.003c1.016 0.023 2.213 0.036 3.413 0.036 26.901 0 52.273-6.547 74.61-18.135l-0.902 0.426 370.757-209.382c16.838-9.64 26.51-21.658 26.51-33.322s-9.608-23.779-26.478-33.29zM973.647 509.648c-2.557 1.592-5.662 2.536-8.986 2.536-9.495 0-17.191-7.697-17.191-17.191 0-6.602 3.722-12.335 9.182-15.215l0.094-0.045c16.838-9.64 26.51-21.658 26.51-33.29s-9.64-23.779-26.51-33.29l-370.789-209.479c-22.504-11.146-49.003-17.667-77.024-17.667s-54.52 6.521-78.060 18.129l1.036-0.462-371.046 209.447c-16.838 9.64-26.478 21.658-26.478 33.29s9.64 23.779 26.478 33.29c5.554 2.925 9.275 8.658 9.275 15.26 0 9.495-7.697 17.191-17.191 17.191-3.325 0-6.429-0.944-9.059-2.578l0.073 0.042c-24.756-11.308-42.053-35.063-43.946-63.042l-0.012-0.229c1.929-28.183 19.22-51.908 43.492-63.016l0.466-0.191 370.918-209.382c26.265-14.066 57.458-22.329 90.58-22.329 1.165 0 2.328 0.010 3.489 0.031l-0.175-0.002c1.011-0.019 2.204-0.030 3.399-0.030 33.105 0 64.28 8.264 91.574 22.841l-1.047-0.51 370.918 209.382c24.747 11.295 42.048 35.020 43.978 62.974l0.013 0.233c-1.949 28.167-19.234 51.876-43.492 62.983l-0.466 0.191zM973.647 294.193c-2.557 1.592-5.662 2.536-8.986 2.536-9.495 0-17.191-7.697-17.191-17.191 0-6.602 3.722-12.335 9.182-15.215l0.094-0.045c16.838-9.64 26.51-21.658 26.51-33.29s-9.64-23.779-26.51-33.322l-370.789-209.479c-22.504-11.146-49.003-17.667-77.024-17.667s-54.52 6.521-78.060 18.129l1.036-0.462-371.046 209.414c-16.838 9.64-26.478 21.658-26.478 33.322s9.64 23.779 26.478 33.29c5.554 2.925 9.275 8.658 9.275 15.26 0 9.495-7.697 17.191-17.191 17.191-3.325 0-6.429-0.944-9.059-2.578l0.073 0.042c-24.72-11.329-41.993-35.057-43.914-63.007l-0.013-0.232c1.915-28.188 19.211-51.92 43.492-63.016l0.466-0.191 370.918-209.382c26.265-14.066 57.458-22.329 90.58-22.329 1.165 0 2.328 0.010 3.489 0.031l-0.175-0.002c1.018-0.019 2.219-0.030 3.422-0.030 33.097 0 64.264 8.264 91.55 22.841l-1.046-0.51 370.918 209.382c24.742 11.301 42.040 35.022 43.978 62.973l0.013 0.234c-1.91 28.233-19.218 52.009-43.524 63.144l-0.466 0.191z" />
<glyph unicode="&#xe917;" glyph-name="picture" d="M48-64h928c26.51 0 48 21.49 48 48v0 928c0 26.51-21.49 48-48 48v0h-928c-26.51 0-48-21.49-48-48v0-928c0-26.51 21.49-48 48-48v0zM32 912c0 8.837 7.163 16 16 16v0h928c8.837 0 16-7.163 16-16v0-928c0-8.837-7.163-16-16-16v0h-928c-8.837 0-16 7.163-16 16v0zM656 560c35.346 0 64 28.654 64 64s-28.654 64-64 64c-35.346 0-64-28.654-64-64v0c0-35.346 28.654-64 64-64v0zM656 656c17.673 0 32-14.327 32-32s-14.327-32-32-32c-17.673 0-32 14.327-32 32v0c0 17.673 14.327 32 32 32v0zM144 160h736c8.837 0 16 7.163 16 16v0 640c0 8.837-7.163 16-16 16v0h-736c-8.837 0-16-7.163-16-16v0-640c0-8.837 7.163-16 16-16v0zM160 192v180.416c0.816 0.459 1.517 0.935 2.175 1.464l-0.031-0.024 163.712 163.744c4.023 3.885 9.508 6.279 15.552 6.279s11.529-2.394 15.559-6.285l-0.007 0.006 240.672-240.672c2.897-2.906 6.904-4.703 11.331-4.703 4.298 0 8.2 1.695 11.075 4.452l-0.006-0.005 123.712 117.504c3.96 3.955 9.428 6.4 15.466 6.4 0.030 0 0.060 0 0.090 0h-0.005c0.052 0 0.113 0.001 0.174 0.001 5.785 0 11.037-2.281 14.906-5.992l-0.008 0.007 89.632-97.632v-124.96h-704zM864 800v-435.776l-66.592 72.512c-9.684 9.783-23.115 15.84-37.962 15.84-0.053 0-0.106 0-0.159 0h0.008c-0.069 0-0.151 0.001-0.232 0.001-14.707 0-28.027-5.941-37.69-15.555l0.002 0.002-112-106.496-229.632 229.664c-9.903 9.474-23.359 15.305-38.176 15.305s-28.273-5.832-38.197-15.325l0.021 0.020-143.392-143.264v383.072h704z" />
<glyph unicode="&#xe918;" glyph-name="pinterest-p" horiz-adv-x="788" d="M418.544 960c-210.517 0-418.544-140.298-418.544-367.44 0-144.437 81.233-226.511 130.477-226.511 20.308 0 32.023 56.61 32.023 72.639 0 19.081-48.613 59.627-48.613 139.105-0.027 1.44-0.042 3.139-0.042 4.841 0 153.129 124.135 277.264 277.264 277.264 3.802 0 7.585-0.077 11.35-0.228l-0.54 0.017c139.702 0 243.136-79.409 243.136-225.284 0-108.941-43.703-313.285-185.264-313.285-1.049-0.043-2.28-0.068-3.516-0.068-49.92 0-90.472 40.111-91.184 89.862l-0.001 0.067c0 77.55 54.155 152.644 54.155 232.649 0 135.808-192.664 111.186-192.664-52.927-0.090-2.456-0.141-5.342-0.141-8.239 0-34.636 7.306-67.566 20.46-97.333l-0.608 1.541c-28.305-121.884-86.178-303.429-86.178-428.996 0-38.792 5.542-76.953 9.225-115.746 7.015-7.787 3.507-7.015 14.030-3.087 103.47 141.596 99.752 169.305 146.541 354.743 30.28-44.828 80.906-73.912 138.325-73.912 1.36 0 2.715 0.016 4.067 0.049l-0.2-0.004c217.883 0 315.67 212.341 315.67 403.778 0.070 203.572-175.969 336.505-369.229 336.505z" />
<glyph unicode="&#xe919;" glyph-name="recycle" horiz-adv-x="1012" d="M382.732 874.667l-98.011-145.749c-1.703-2.505-2.718-5.595-2.718-8.923 0-8.84 7.166-16.006 16.006-16.006 5.512 0 10.373 2.786 13.252 7.027l0.036 0.056 98.548 146.53c17.087 38.428 52.958 65.726 95.632 70.366l0.527 0.046c43.161-4.721 78.99-32.010 95.761-69.659l0.3-0.754 176.469-307.2-125.464 25.064c-0.946 0.198-2.032 0.312-3.145 0.312-8.844 0-16.013-7.169-16.013-16.013 0-7.731 5.478-14.182 12.765-15.684l0.103-0.018 159.988-31.988c0.95-0.181 2.046-0.287 3.165-0.293h0.005c2.603 0.079 5.026 0.774 7.153 1.943l-0.082-0.041c0.293 0 0.585 0 0.878 0s0.488 0.488 0.829 0.731c1.070 0.731 1.998 1.55 2.815 2.471l0.014 0.016c0.524 0.493 1.003 1.018 1.44 1.578l0.023 0.031c0.589 0.923 1.115 1.985 1.524 3.104l0.037 0.115c0.303 0.613 0.585 1.342 0.805 2.096l0.024 0.098s0 0.341 0 0.488l31.988 159.988c0.269 1.099 0.424 2.36 0.424 3.657 0 8.833-7.161 15.994-15.994 15.994-7.92 0-14.496-5.757-15.771-13.315l-0.013-0.094-23.65-118.248-172.763 301.397c-22.464 48.131-68.64 81.827-123.090 86.178l-0.522 0.034c-54.726-4.153-100.774-37.539-122.888-84.432l-0.382-0.901zM313.978 47.372c0 8.833-7.161 15.994-15.994 15.994v0h-143.945c-2.66-0.21-5.76-0.33-8.888-0.33-41.398 0-77.887 21.013-99.385 52.956l-0.271 0.428c-8.228 16.54-13.043 36.023-13.043 56.632 0 27.425 8.528 52.858 23.076 73.793l-0.28-0.426 176.226 308.858 51.688-129.268c2.423-5.843 8.040-9.898 14.616-9.996h0.012c2.147 0.014 4.189 0.443 6.057 1.21l-0.108-0.039c5.939 2.441 10.045 8.18 10.045 14.879 0 2.122-0.412 4.147-1.16 6.001l0.038-0.108-63.781 159.988c-0.421 0.838-0.875 1.557-1.389 2.227l0.024-0.033c-0.411 0.778-0.815 1.432-1.257 2.056l0.038-0.057c-1.084 1.289-2.338 2.388-3.738 3.277l-0.066 0.039s-0.341 0.39-0.585 0.488v0c-1.673 0.967-3.636 1.64-5.729 1.894l-0.074 0.007h-1.122c-0.623 0.1-1.341 0.156-2.072 0.156s-1.45-0.057-2.15-0.167l0.078 0.010-159.988-31.988c-7.39-1.519-12.868-7.971-12.868-15.701 0-8.844 7.169-16.013 16.013-16.013 1.113 0 2.2 0.114 3.249 0.33l-0.103-0.018 125.513 25.064-175.397-306.81c-17.016-25.063-27.168-55.986-27.168-89.279 0-26.514 6.438-51.524 17.836-73.553l-0.421 0.894c27.218-42.074 73.908-69.525 127.008-69.525 3.248 0 6.472 0.103 9.669 0.305l-0.437-0.022h144.286c8.849 0.028 16.015 7.194 16.043 16.040v0.003zM994.45 101.010c10.949 20.94 17.373 45.738 17.373 72.037 0 32.485-9.801 62.681-26.608 87.792l0.361-0.572-64.805 146.286c-2.551 5.653-8.139 9.516-14.629 9.516-8.837 0-16.002-7.164-16.002-16.002 0-2.348 0.506-4.577 1.414-6.586l-0.041 0.101 65.585-147.651c14.162-20.355 22.627-45.598 22.627-72.819 0-20.396-4.752-39.682-13.21-56.811l0.336 0.752c-21.821-32.299-58.3-53.254-99.674-53.254-3.208 0-6.386 0.126-9.53 0.373l0.416-0.026-329.923-0.536 69.193 69.193c2.895 2.895 4.686 6.895 4.686 11.313 0 8.836-7.163 15.999-15.999 15.999-4.418 0-8.418-1.791-11.313-4.686v0l-96.256-96.11c-3.009-2.912-4.877-6.987-4.877-11.498 0-0.038 0-0.075 0-0.113v0.006s0 0 0-0.341c0.065-5.15 2.607-9.693 6.488-12.5l0.046-0.032 94.549-93.964c2.9-2.906 6.908-4.703 11.337-4.703 8.845 0 16.016 7.171 16.016 16.016 0 4.417-1.788 8.416-4.679 11.313v0l-68.267 68.267 328.85 0.536c2.838-0.19 6.151-0.298 9.49-0.298 53.047 0 99.712 27.325 126.688 68.667l0.356 0.581z" />
<glyph unicode="&#xe91a;" glyph-name="stack" horiz-adv-x="1170" d="M1170.3 667.4l-585.15 292.6-585.15-292.6 585.15-292.6zM585.15 862.903l390.906-195.503-390.906-195.453-390.906 195.453 390.906 195.453zM1053.109 506.747l117.191-58.57-585.15-292.6-585.15 292.399 117.191 58.772 467.959-233.979zM1053.109 287.322l117.191-58.57-585.15-292.6-585.15 292.399 117.191 58.621 467.959-233.979z" />
<glyph unicode="&#xe91b;" glyph-name="support" d="M183.528 870.476l-94.197-94.037c-2.893-2.897-4.682-6.897-4.682-11.314 0-8.843 7.169-16.012 16.012-16.012 4.426 0 8.432 1.795 11.33 4.698l94.197 94.261c2.254 2.737 3.621 6.278 3.621 10.139 0 8.838-7.165 16.004-16.004 16.004-3.925 0-7.519-1.413-10.303-3.757l0.024 0.020zM912.072 142.221l-94.197-94.165c-2.893-2.897-4.682-6.897-4.682-11.314 0-8.843 7.169-16.012 16.012-16.012 4.426 0 8.432 1.795 11.33 4.698l93.941 94.165c2.893 2.897 4.682 6.897 4.682 11.314 0 8.843-7.169 16.012-16.012 16.012-4.426 0-8.432-1.795-11.33-4.698v0zM852.923 864.331c-2.875 2.78-6.796 4.492-11.118 4.492-8.838 0-16.004-7.165-16.004-16.004 0-4.321 1.713-8.243 4.497-11.122l87.919-87.887c2.898-2.902 6.905-4.698 11.33-4.698 8.843 0 16.012 7.169 16.012 16.012 0 4.418-1.789 8.418-4.682 11.315v0l-87.955 87.891zM95.637 129.674c-2.895-2.896-4.686-6.896-4.686-11.314s1.791-8.419 4.686-11.315l87.923-87.955c2.898-2.902 6.905-4.698 11.33-4.698 8.843 0 16.012 7.169 16.012 16.012 0 4.418-1.789 8.418-4.682 11.315v0l-87.923 87.955c-2.897 2.905-6.904 4.702-11.33 4.702s-8.433-1.797-11.33-4.701v0zM144.928 644.507c-6.401-12.163-12.195-24.677-17.412-37.256-20.117-47.142-31.812-101.988-31.812-159.565 0-114.873 46.55-218.874 121.817-294.167l-0.001 0.001c30.055-30.101 64.703-55.606 102.804-75.376l2.307-1.089c9.858-5.025 19.876-9.602 30.023-13.667 47.064-19.979 101.801-31.592 159.251-31.592s112.187 11.613 161.993 32.618l-2.742-1.027c15.233 6.215 27.455 12.045 39.322 18.446l-2.162-1.066c72.78 39.548 131.030 97.808 169.475 168.409l1.090 2.188c6.401 12.163 12.227 24.613 17.444 37.256v0c19.851 47.073 31.386 101.799 31.386 159.219s-11.535 112.145-32.414 161.986l1.028-2.767c-4.193 10.114-8.674 20.196-13.667 30.023-70.473 135.76-209.988 226.908-370.792 226.908-57.465 0-112.211-11.64-162.009-32.691l2.733 1.026c-12.803-5.249-25.093-10.914-37.256-17.444-72.665-39.549-130.844-97.718-169.313-168.189l-1.092-2.185zM451.171 594.768v0c18.026 7.679 38.995 12.142 61.007 12.142 21.864 0 42.7-4.404 61.669-12.373l-1.049 0.391c39.112-16.453 69.588-46.981 85.582-85.088l0.388-1.043c6.346-14.842 10.58-32.048 11.815-50.078l0.027-0.493c0.208-3.074 0.326-6.662 0.326-10.279 0-6.529-0.386-12.967-1.136-19.294l0.074 0.766c-1.9-15.7-5.807-29.995-11.498-43.346l0.391 1.033c-16.362-39.078-46.854-69.519-84.931-85.426l-1.039-0.385c-12.315-5.264-26.608-9.158-41.538-10.997l-0.776-0.078c-5.517-0.69-11.902-1.084-18.379-1.084-3.669 0-7.308 0.126-10.914 0.375l0.487-0.027c-83.229 5.399-148.691 74.227-148.691 158.345 0 22.002 4.478 42.957 12.573 62.005l-0.392-1.038c8.357 20.081 19.966 37.223 34.343 51.595v0c14.423 14.299 31.578 25.869 50.608 33.856l1.051 0.391zM872.735 580.077c14.688-39.295 23.188-84.701 23.188-132.093s-8.5-92.798-24.060-134.777l0.871 2.684-178.855 74.064c3.475 10.308 6.217 22.442 7.722 34.957l0.087 0.891c0.825 6.643 1.296 14.331 1.296 22.13 0 20.742-3.331 40.707-9.488 59.387l0.382-1.339 178.855 74.096zM323.655 416.329c1.763-10.264 3.985-19.141 6.79-27.755l-0.389 1.381-178.823-74.096c-14.688 39.295-23.188 84.701-23.188 132.093s8.5 92.798 24.060 134.777l-0.871-2.684 178.823-74.064c-3.471-10.296-6.213-22.419-7.722-34.921l-0.088-0.895c-0.801-6.587-1.258-14.213-1.258-21.946 0-11.265 0.97-22.303 2.831-33.035l-0.164 1.145zM240.245 176.245c-24.303 24.311-45.364 51.867-62.476 81.96l-0.994 1.898q-7.010 12.483-13.315 26.182l178.887 74.032c9.481-18.206 21.004-33.825 34.569-47.404l-0.002 0.002c13.573-13.605 29.219-25.134 46.425-34.075l1.041-0.492-74.128-178.951q-6.401 2.977-12.995 6.241c-37.287 19.288-69.261 42.836-97.011 70.605l-0.002 0.002zM379.891 87.233l74.096 178.887c13.432-4.492 29.004-7.594 45.131-8.675l0.575-0.031c3.655-0.245 7.922-0.384 12.222-0.384 7.851 0 15.594 0.465 23.202 1.37l-0.92-0.089c13.398 1.616 25.508 4.357 37.121 8.192l-1.337-0.382 74.096-178.887c-39.291-14.719-84.697-23.237-132.093-23.237s-92.802 8.519-134.77 24.109l2.677-0.871zM783.723 176.245c-26.021-26.091-55.767-48.449-88.377-66.212l-2.011-1.003q-9.602-5.185-19.652-9.602l-74.128 178.919c35.446 18.411 63.642 46.597 81.57 80.989l0.496 1.045 178.919-74.096c-3.041-6.657-6.241-13.219-9.602-19.684-18.737-34.62-41.098-64.358-67.2-90.341l-0.015-0.014zM783.723 719.723c27.717-27.755 51.205-59.743 69.409-94.907l1.006-2.138c2.208-4.289 4.257-8.61 6.401-12.995l-178.919-74.096c-18.482 35.376-46.635 63.539-80.956 81.534l-1.046 0.5 74.096 178.919c9.154-4.225 17.924-8.674 26.214-13.347 31.968-18.103 59.502-39.164 83.792-63.468l0.002-0.002zM644.109 808.735l-74.096-178.823c-7.246 2.427-16.124 4.649-25.22 6.235l-1.154 0.166c-9.535 1.703-20.512 2.677-31.716 2.677-20.691 0-40.606-3.321-59.241-9.46l1.337 0.381-74.128 178.791c39.295 14.726 84.707 23.249 132.109 23.249s92.813-8.523 134.785-24.12l-2.676 0.871zM330.44 786.842q9.602 5.185 19.684 9.602l74.096-178.919c-35.357-18.417-63.483-46.563-81.378-80.892l-0.496-1.046-178.919 74.096c3.009 6.657 6.209 13.219 9.602 19.684 36.528 67.174 90.3 120.946 155.455 156.466l2.020 1.008zM749.412 30.581c-68.271-39.361-150.146-62.582-237.444-62.582s-169.173 23.221-239.784 63.822l2.34-1.24c-2.276 1.318-5.008 2.096-7.922 2.096-8.847 0-16.019-7.172-16.019-16.019 0-5.934 3.226-11.114 8.020-13.882l0.077-0.041c72.835-41.974 160.178-66.735 253.303-66.735s180.469 24.761 255.804 68.059l-2.5-1.325c4.849 2.825 8.057 7.999 8.057 13.923 0 8.869-7.19 16.059-16.059 16.059-2.945 0-5.705-0.793-8.078-2.177l0.076 0.041zM66.767 701.255c-41.989-72.821-66.76-160.153-66.76-253.271s24.771-180.45 68.083-255.767l-1.323 2.496c2.747-5.091 8.042-8.492 14.131-8.492 8.838 0 16.004 7.165 16.004 16.004 0 3.068-0.863 5.934-2.36 8.369l0.040-0.069c-39.361 68.276-62.581 150.156-62.581 237.46s23.221 169.184 63.823 239.802l-1.241-2.342c1.457 2.366 2.321 5.232 2.321 8.3 0 8.838-7.165 16.004-16.004 16.004-6.089 0-11.384-3.401-14.089-8.407l-0.042-0.085zM957.201 194.713c41.989 72.821 66.76 160.153 66.76 253.271s-24.771 180.45-68.083 255.767l1.323-2.496c-2.747 5.091-8.042 8.492-14.131 8.492-8.838 0-16.004-7.165-16.004-16.004 0-3.068 0.863-5.934 2.36-8.369l-0.040 0.069c39.361-68.276 62.581-150.156 62.581-237.46s-23.221-169.184-63.823-239.802l1.241 2.342c-1.457-2.366-2.321-5.232-2.321-8.3 0-8.838 7.165-16.004 16.004-16.004 6.089 0 11.384 3.401 14.089 8.407l0.042 0.085zM274.556 865.387c68.271 39.361 150.146 62.582 237.444 62.582s169.173-23.221 239.784-63.822l-2.34 1.24c2.276-1.318 5.008-2.096 7.922-2.096 8.847 0 16.019 7.172 16.019 16.019 0 5.934-3.226 11.114-8.020 13.882l-0.077 0.041c-72.826 41.988-160.164 66.759-253.287 66.759s-180.462-24.771-255.785-68.083l2.497 1.324c-4.871-2.809-8.097-7.99-8.097-13.923 0-8.847 7.172-16.019 16.019-16.019 2.913 0 5.645 0.778 7.999 2.137l-0.077-0.041z" />
<glyph unicode="&#xe91c;" glyph-name="trashcan" d="M672.030 63.994c0.015 0 0.033 0 0.050 0 17.651 0 31.961 14.309 31.961 31.961 0 0.018 0 0.035 0 0.053v-0.003 448.003c0 17.679-14.332 32.011-32.011 32.011s-32.011-14.332-32.011-32.011v-448.003c0-0.015 0-0.033 0-0.050 0-17.651 14.309-31.961 31.961-31.961 0.018 0 0.035 0 0.053 0h-0.003zM352.020 63.994c17.679 0 32.011 14.332 32.011 32.011v448.003c0 17.679-14.332 32.011-32.011 32.011s-32.011-14.332-32.011-32.011v0-448.003c0-17.679 14.332-32.011 32.011-32.011v0zM928.218 767.984h-128.194v64.022c0 70.689-57.305 127.994-127.994 127.994v0h-320.009c-70.689 0-127.994-57.305-127.994-127.994v0-64.022h-128.044l-95.983-95.983c0-17.679 14.332-32.011 32.011-32.011v0h95.983v-640.019c0-35.358 28.664-64.022 64.022-64.022v0h639.969c35.358 0 64.022 28.664 64.022 64.022v0 640.019h95.983c0.015 0 0.033 0 0.050 0 17.651 0 31.961 14.309 31.961 31.961 0 0.018 0 0.035 0 0.053v-0.003zM320.009 832.006c0.029 35.319 28.653 63.943 63.969 63.972h255.89c35.358 0 64.022-28.664 64.022-64.022v0-63.972h-383.881zM831.984 31.782c0-0.015 0-0.033 0-0.050 0-17.651-14.309-31.961-31.961-31.961-0.018 0-0.035 0-0.053 0h-575.944c-17.679 0-32.011 14.332-32.011 32.011v608.209h639.969zM511.774 63.994c0.015 0 0.033 0 0.050 0 17.651 0 31.961 14.309 31.961 31.961 0 0.018 0 0.035 0 0.053v-0.003 448.003c0 17.679-14.332 32.011-32.011 32.011s-32.011-14.332-32.011-32.011v0-448.003c0-0.015 0-0.033 0-0.050 0-17.651 14.309-31.961 31.961-31.961 0.018 0 0.035 0 0.053 0h-0.003z" />
<glyph unicode="&#xe91d;" glyph-name="twitter" horiz-adv-x="1261" d="M1131.185 704.821c0.821-11.185 0.821-22.413 0.821-33.598 0-341.592-260.016-735.179-735.179-735.179-0.59-0.002-1.289-0.003-1.988-0.003-146.672 0-283.244 43.244-397.663 117.677l2.824-1.723c17.553-2.044 37.89-3.21 58.5-3.21 1.372 0 2.743 0.005 4.113 0.015l-0.21-0.001c0.39-0.001 0.851-0.002 1.312-0.002 121.059 0 232.409 41.569 320.554 111.212l-1.089-0.83c-112.609 2.106-207.462 75.804-241.095 177.389l-0.524 1.828c14.589-2.437 31.475-3.893 48.677-4.016l0.121-0.001c24.175 0.013 47.608 3.163 69.922 9.066l-1.906-0.429c-119.070 24.666-207.288 128.686-207.288 253.309 0 0.096 0 0.192 0 0.287v-0.015 3.196c33.61-19.099 73.534-31.040 116.090-32.761l0.509-0.016c-69.826 47.074-115.14 125.868-115.14 215.246 0 47.983 13.060 92.916 35.819 131.437l-0.658-1.204c128.044-156.712 317.444-259.121 531.007-270.305l1.808-0.076c-3.955 17.751-6.277 38.176-6.391 59.123v0.083c0.136 142.737 115.878 258.395 258.634 258.395 74.281 0 141.249-31.315 188.421-81.463l0.124-0.134c61.866 12.133 116.878 33.809 166.387 63.681l-2.284-1.279c-19.985-60.797-60.172-110.351-112.46-141.862l-1.16-0.648c55.305 6.478 105.731 20.679 152.49 41.606l-3.286-1.314c-36.118-52.011-79.106-96.167-128.285-132.409l-1.529-1.075z" />
<glyph unicode="&#xe91e;" glyph-name="upload" horiz-adv-x="1344" d="M1086.656 544.384c-13.664 211.584-160.8 415.616-430.656 415.616-2.439 0.049-5.315 0.077-8.197 0.077-238.747 0-432.998-190.511-439.024-427.806l-0.011-0.559c-135.168-42.112-208.768-186.528-208.768-291.712 0-161.952 134.592-304 288-304h208c8.837 0 16 7.163 16 16s-7.163 16-16 16v0h-208c-136.384 0-256 127.104-256 272 0 97.632 85.568 272 256 272h48c8.837 0 16 7.163 16 16s-7.163 16-16 16v0h-48c-16.59-0.131-32.717-1.743-48.364-4.712l1.676 0.264c10.413 216.738 188.669 388.52 407.046 388.52 2.687 0 5.368-0.026 8.043-0.078l-0.401 0.006c274.816 0 400-215.648 400-416v-48c0-8.837 7.163-16 16-16s16 7.163 16 16v0 48.288c128.418-25.067 224.005-136.675 224.005-270.608 0-0.591-0.002-1.181-0.006-1.771v0.091c0-122.432-118.112-272-256-272h-240c-103.616 0-144 40.384-144 144v438.944l130.496-130.24c2.915-3.023 7-4.9 11.524-4.9 8.837 0 16 7.163 16 16 0 4.508-1.864 8.58-4.864 11.488l-0.004 0.004-142.752 142.464c-5.734 8.605-15.398 14.198-26.368 14.198s-20.634-5.593-26.296-14.083l-0.072-0.115-142.752-142.464c-3.014-2.914-4.885-6.993-4.885-11.509 0-8.837 7.163-16 16-16 4.516 0 8.595 1.871 11.504 4.88l0.004 0.004 130.464 130.272v-438.944c0-121.6 54.4-176 176-176h240c155.104 0 288 167.168 288 304 0 165.344-135.136 294.656-257.344 304.384z" />
<glyph unicode="&#xe920;" glyph-name="world" d="M512.021 960c-0.013 0-0.027 0-0.042 0-282.781 0-512.021-229.24-512.021-512.021s229.24-512.021 512.021-512.021c282.781 0 512.021 229.24 512.021 512.021v0c0 0.013 0 0.027 0 0.042 0 282.758-229.221 511.979-511.979 511.979v0zM957.13 464.517h-198.084c-1.562 74.65-15.312 145.603-39.33 211.624l1.455-4.576c47.116 20.085 87.756 44.411 124.531 73.421l-1.144-0.87c66.55-74.226 108.55-171.671 112.548-278.833l0.024-0.807zM493.757 2.954c-55.848 47.408-101.186 105.328-133.291 170.906l-1.373 3.106c40.522 12.936 87.252 21.036 135.666 22.414l0.724 0.016v-196.527h-1.767zM530.243 893.004c63.361-54.112 113.447-121.858 145.976-198.833l1.314-3.501c-44.244-15.611-95.313-25.4-148.427-27.081l-0.798-0.020v229.519zM585.287 887.407c92.84-15.82 173.769-58.435 236.701-119.496l-0.111 0.107c-32.716-25.485-70.009-47.608-109.953-64.731l-3.291-1.255c-30.429 72.010-72.094 133.535-123.475 185.421l0.046-0.047zM495.483 893.088v-229.519c-53.917 1.715-104.984 11.503-152.816 28.192l3.59-1.090c33.908 80.509 84.079 148.272 146.797 201.756l0.745 0.62h1.725zM315.326 701.991c-43.268 18.387-80.588 40.51-114.474 66.842l1.145-0.856c62.826 60.967 143.773 103.585 233.998 119.016l2.633 0.372c-51.297-51.838-92.922-113.365-121.87-181.574l-1.433-3.801zM333.801 660.202c47.93-17.184 103.265-27.922 160.857-29.69l0.825-0.020v-165.974h-197.494c1.54 70.566 14.536 137.617 37.192 200.034l-1.38-4.349zM495.483 431.483v-199.009c-54.020-1.453-105.392-10.581-153.776-26.329l3.835 1.080c-28.334 66.164-45.634 143.022-47.54 223.69l-0.014 0.738h197.494zM438.755 8.593c-83.612 14.241-157.101 50.058-216.754 101.483l0.575-0.485c30.339 21.438 65.007 40.308 101.815 54.948l3.391 1.19c29.358-60.575 66.478-112.422 110.902-156.983l-0.014 0.014zM528.517 2.87v196.527c49.139-1.398 95.87-9.498 140.018-23.417l-3.628 0.987c-33.49-68.679-78.827-126.596-133.91-173.387l-0.755-0.625h-1.767zM696.133 165.562c40.205-15.876 74.869-34.743 106.816-57.211l-1.609 1.073c-59.085-50.928-132.571-86.742-213.547-100.625l-2.632-0.373c44.443 44.596 81.591 96.499 109.479 153.742l1.493 3.395zM678.458 207.055c-44.548 14.663-95.919 23.791-149.208 25.234l-0.733 0.016v199.178h197.494c-1.937-81.406-19.234-158.262-49.089-228.492l1.535 4.064zM528.517 464.517v165.974c58.385 1.699 113.733 12.352 165.482 30.627l-3.8-1.17c21.242-58.065 34.235-125.111 35.8-194.976l0.013-0.709h-197.494zM179.483 744.115c35.667-28.142 76.35-52.47 119.999-71.209l3.514-1.342c-22.562-61.445-36.312-132.397-37.863-206.349l-0.012-0.698h-198.21c4.020 107.955 46.020 205.386 112.939 280.014l-0.367-0.416zM66.912 431.483h198.21c1.919-85.448 19.991-166.168 51.266-239.933l-1.608 4.27c-44.677-17.811-83.231-39.279-118.532-64.95l1.542 1.068c-77.361 76.932-126.568 182.104-130.854 298.748l-0.023 0.797zM826.295 131.979c-33.735 24.558-72.261 45.997-113.296 62.514l-3.609 1.283c29.68 69.492 47.766 150.209 49.686 234.919l0.013 0.745h198.084c-4.332-117.41-53.535-222.549-130.857-299.441l-0.020-0.020z" />
<glyph unicode="&#xe921;" glyph-name="youtube" horiz-adv-x="1456" d="M1425.694 799.764c-17.193 63.162-65.731 111.98-127.445 129.27l-1.289 0.308c-113.381 30.658-568.785 30.658-568.785 30.658s-455.403 0-568.972-30.611c-63.002-17.599-111.54-66.417-128.435-128.295l-0.299-1.284c-19.359-106.071-30.43-228.141-30.43-352.797s11.070-246.728 32.282-365.284l-1.852 12.487c17.295-62.606 65.9-110.805 127.474-127.227l1.259-0.286c113.569-30.611 568.972-30.611 568.972-30.611s455.403 0 568.972 30.611c62.746 16.758 111.269 64.922 128.246 126.199l0.3 1.267c19.359 106.071 30.43 228.141 30.43 352.797s-11.070 246.728-32.282 365.284l1.852-12.487zM579.207 230.416v433.103l380.614-216.528z" />
<glyph unicode="&#xe986;" glyph-name="search" d="M992.262 88.604l-242.552 206.294c-25.074 22.566-51.89 32.926-73.552 31.926 57.256 67.068 91.842 154.078 91.842 249.176 0 212.078-171.922 384-384 384-212.076 0-384-171.922-384-384s171.922-384 384-384c95.098 0 182.108 34.586 249.176 91.844-1-21.662 9.36-48.478 31.926-73.552l206.294-242.552c35.322-39.246 93.022-42.554 128.22-7.356s31.892 92.898-7.354 128.22zM384 320c-141.384 0-256 114.616-256 256s114.616 256 256 256 256-114.616 256-256-114.614-256-256-256z" />
<glyph unicode="&#xea0a;" glyph-name="plus" d="M992 576h-352v352c0 17.672-14.328 32-32 32h-192c-17.672 0-32-14.328-32-32v-352h-352c-17.672 0-32-14.328-32-32v-192c0-17.672 14.328-32 32-32h352v-352c0-17.672 14.328-32 32-32h192c17.672 0 32 14.328 32 32v352h352c17.672 0 32 14.328 32 32v192c0 17.672-14.328 32-32 32z" />
<glyph unicode="&#xea1e;" glyph-name="minus" d="M0 544v-192c0-17.672 14.328-32 32-32h960c17.672 0 32 14.328 32 32v192c0 17.672-14.328 32-32 32h-960c-17.672 0-32-14.328-32-32z" />
<glyph unicode="&#xea2d;" glyph-name="loop" d="M128 640h640v-192l256 256-256 256v-192h-768v-384h128zM896 256h-640v192l-256-256 256-256v192h768v384h-128z" />
<glyph unicode="&#xea2e;" glyph-name="loop2" d="M889.68 793.68c-93.608 102.216-228.154 166.32-377.68 166.32-282.77 0-512-229.23-512-512h96c0 229.75 186.25 416 416 416 123.020 0 233.542-53.418 309.696-138.306l-149.696-149.694h352v352l-134.32-134.32zM928 448c0-229.75-186.25-416-416-416-123.020 0-233.542 53.418-309.694 138.306l149.694 149.694h-352v-352l134.32 134.32c93.608-102.216 228.154-166.32 377.68-166.32 282.77 0 512 229.23 512 512h-96z" />
</font>
</defs>
</svg>
