<svg xmlns="http://www.w3.org/2000/svg" width="17.666" height="20.191" viewBox="0 0 17.666 20.191">
  <path id="attachment" d="M13.5,6.448l-1.281-1.28-6.4,6.4a2.717,2.717,0,1,0,3.843,3.842l7.685-7.684a4.528,4.528,0,0,0-6.4-6.4L2.868,9.394l-.017.016a6.315,6.315,0,0,0,8.932,8.93l.016-.017h0l5.508-5.507-1.281-1.28-5.508,5.506-.016.016a4.5,4.5,0,0,1-6.37-6.368l.018-.016h0l8.07-8.068a2.717,2.717,0,0,1,3.843,3.842L8.376,14.132A.905.905,0,0,1,7.1,12.852l6.4-6.4Z" transform="translate(-1.001 0)" fill="#444"/>
</svg>
