<svg xmlns="http://www.w3.org/2000/svg" width="24" height="32" viewBox="0 0 24 32">
  <path id="document" d="M1.5,32h21A1.5,1.5,0,0,0,24,30.5V9.5c0-.017-.008-.031-.009-.047a.467.467,0,0,0-.013-.065.488.488,0,0,0-.09-.191c-.007-.009-.006-.02-.013-.029l-8-9s-.007,0-.01-.006a.494.494,0,0,0-.223-.134.347.347,0,0,0-.056-.011A.5.5,0,0,0,15.5,0H1.5A1.5,1.5,0,0,0,0,1.5v29A1.5,1.5,0,0,0,1.5,32ZM16,1.815,22.387,9H16.5c-.22,0-.5-.42-.5-.75ZM1,1.5A.5.5,0,0,1,1.5,1H15V8.25A1.735,1.735,0,0,0,16.5,10H23V30.5a.5.5,0,0,1-.5.5H1.5a.5.5,0,0,1-.5-.5ZM5.5,14h13a.5.5,0,0,0,0-1H5.5a.5.5,0,0,0,0,1Zm0,4h13a.5.5,0,0,0,0-1H5.5a.5.5,0,0,0,0,1Zm0-8h6a.5.5,0,0,0,0-1h-6a.5.5,0,0,0,0,1Zm0,12h13a.5.5,0,0,0,0-1H5.5a.5.5,0,0,0,0,1Zm0,4h13a.5.5,0,0,0,0-1H5.5a.5.5,0,0,0,0,1Z"/>
</svg>
