<svg xmlns="http://www.w3.org/2000/svg" width="34" height="32" viewBox="0 0 34 32">
  <path id="documents" d="M1.512,28H19.5A1.5,1.5,0,0,0,21,26.5V7.5a.467.467,0,0,0-.013-.065.426.426,0,0,0-.013-.062.488.488,0,0,0-.122-.227l-7-7a.507.507,0,0,0-.227-.122.426.426,0,0,0-.062-.013A.452.452,0,0,0,13.5,0H1.506A1.505,1.505,0,0,0,0,1.5v25A1.508,1.508,0,0,0,1.512,28ZM14,1.707,19.293,7H14.5a.5.5,0,0,1-.5-.5V1.707ZM1,1.5A.5.5,0,0,1,1.506,1H13V6.5A1.5,1.5,0,0,0,14.5,8H20V26.5a.5.5,0,0,1-.5.5H1.512A.506.506,0,0,1,1,26.5V1.5ZM4.5,12h12a.5.5,0,0,0,0-1H4.5a.5.5,0,0,0,0,1Zm0,4h12a.5.5,0,0,0,0-1H4.5a.5.5,0,0,0,0,1Zm0-8h5a.5.5,0,0,0,0-1h-5a.5.5,0,0,0,0,1Zm0,12h12a.5.5,0,0,0,0-1H4.5a.5.5,0,0,0,0,1Zm0,4h12a.5.5,0,0,0,0-1H4.5a.5.5,0,0,0,0,1Zm17-19H26v5.5A1.5,1.5,0,0,0,27.5,12H33V30.5a.5.5,0,0,1-.5.5H14.512A.506.506,0,0,1,14,30.5v-1a.5.5,0,0,0-1,0v1A1.508,1.508,0,0,0,14.512,32H32.5A1.5,1.5,0,0,0,34,30.5v-19a.467.467,0,0,0-.013-.065.427.427,0,0,0-.013-.062.488.488,0,0,0-.122-.227l-7-7a.491.491,0,0,0-.228-.122.411.411,0,0,0-.061-.012A.454.454,0,0,0,26.5,4h-5a.5.5,0,0,0,0,1Zm6,6a.5.5,0,0,1-.5-.5V5.707L32.293,11Zm-4,5h6a.5.5,0,0,0,0-1h-6a.5.5,0,0,0,0,1Zm0,4h6a.5.5,0,0,0,0-1h-6a.5.5,0,0,0,0,1Zm0,4h6a.5.5,0,0,0,0-1h-6a.5.5,0,0,0,0,1Zm0,4h6a.5.5,0,0,0,0-1h-6a.5.5,0,0,0,0,1Z"/>
</svg>
