<svg xmlns="http://www.w3.org/2000/svg" width="43.718" height="54.751" viewBox="0 0 43.718 54.751">
  <path id="files" d="M30.047,30.4H12.506v1.987H30.047Zm0,6.578H12.506V39.1H30.047ZM19.154,4.016v6.613H12.506v6.613H6.031V58.767h30.63V52.121h6.475V45.679h6.613V4.018H19.154ZM34.536,56.64H8.156V19.227h26.38Zm6.475-6.51h-4.35V17.24H14.631V12.752h26.38V50.13Zm6.613-6.578H43.136V10.627H21.277V6.139H47.624ZM30.047,50.1H12.506V52.22H30.047Zm0-6.611H12.506v2.125H30.047ZM30.08,23.75H12.539v2.193H30.08Z" transform="translate(-6.031 -4.016)"/>
</svg>
