<svg xmlns="http://www.w3.org/2000/svg" width="36.225" height="22.64" viewBox="0 0 36.225 22.64">
  <path id="brand_google-plus-g" data-name="brand google-plus-g" d="M34.807,73.7a9.6,9.6,0,0,1,.185,1.884c0,6.471-4.34,11.058-10.872,11.058a11.32,11.32,0,0,1,0-22.64A10.813,10.813,0,0,1,31.7,66.965l-3.073,2.95a6.356,6.356,0,0,0-4.51-1.745,7.152,7.152,0,0,0,0,14.3,6.131,6.131,0,0,0,6.425-4.88H24.12V73.7H34.807Zm10.931.38V70.792h-3.3v3.286H39.151v3.3h3.286v3.286h3.3V77.38h3.286v-3.3Z" transform="translate(-12.8 -64)" fill="#fff"/>
</svg>
