<svg xmlns="http://www.w3.org/2000/svg" width="31.669" height="31.867" viewBox="0 0 31.669 31.867">
  <path id="layers" d="M30.765,7.262,19.222.747a6.749,6.749,0,0,0-5.845,0L1.834,7.262A2.326,2.326,0,0,0,.466,9.229a2.325,2.325,0,0,0,1.368,1.966l11.543,6.516A6.043,6.043,0,0,0,16.3,18.4a6.059,6.059,0,0,0,2.923-.688l11.543-6.516a2.324,2.324,0,0,0,1.369-1.966,2.329,2.329,0,0,0-1.369-1.967Zm-.526,3L18.7,16.781a5.738,5.738,0,0,1-4.794,0L2.359,10.265c-.524-.3-.824-.674-.824-1.036s.3-.74.824-1.037L13.9,1.676a5.036,5.036,0,0,1,2.4-.55,5.049,5.049,0,0,1,2.4.55L30.238,8.192c.524.3.825.674.825,1.037S30.764,9.969,30.239,10.265Zm.526,3.834a.535.535,0,1,0-.526.931c.524.3.825.674.825,1.036s-.3.74-.825,1.036L18.7,23.618a5.5,5.5,0,0,1-4.794,0L2.359,17.1c-.524-.3-.824-.674-.824-1.036s.3-.74.824-1.036a.535.535,0,1,0-.526-.931A2.325,2.325,0,0,0,.465,16.066a2.325,2.325,0,0,0,1.368,1.967l11.543,6.516a6.065,6.065,0,0,0,2.922.694,6.058,6.058,0,0,0,2.923-.694l11.543-6.516a2.326,2.326,0,0,0,1.369-1.967A2.326,2.326,0,0,0,30.765,14.1Zm0,6.705a.535.535,0,1,0-.526.931c.524.3.825.674.825,1.036s-.3.74-.825,1.037L18.7,30.324a5.5,5.5,0,0,1-4.794,0L2.359,23.807c-.524-.3-.824-.674-.824-1.037s.3-.74.824-1.036a.535.535,0,1,0-.526-.931A2.328,2.328,0,0,0,.466,22.771a2.323,2.323,0,0,0,1.368,1.967l11.543,6.516a6.065,6.065,0,0,0,2.922.694,6.055,6.055,0,0,0,2.923-.694l11.543-6.516a2.327,2.327,0,0,0,1.369-1.967A2.328,2.328,0,0,0,30.765,20.8Z" transform="translate(-0.465 -0.081)"/>
</svg>
