<svg xmlns="http://www.w3.org/2000/svg" width="22.462" height="29.195" viewBox="0 0 22.462 29.195">
  <path id="brand_pinterest-p" data-name="brand pinterest-p" d="M11.933,6.5C5.931,6.5,0,10.5,0,16.976c0,4.118,2.316,6.458,3.72,6.458.579,0,.913-1.614.913-2.071,0-.544-1.386-1.7-1.386-3.966A7.905,7.905,0,0,1,11.459,9.36c3.983,0,6.932,2.264,6.932,6.423,0,3.106-1.246,8.932-5.282,8.932a2.6,2.6,0,0,1-2.7-2.562c0-2.211,1.544-4.352,1.544-6.633,0-3.872-5.493-3.17-5.493,1.509a6.872,6.872,0,0,0,.562,2.966c-.807,3.475-2.457,8.651-2.457,12.231,0,1.106.158,2.194.263,3.3.2.222.1.2.4.088C8.178,31.577,8.072,30.787,9.406,25.5a4.744,4.744,0,0,0,4.054,2.106c6.212,0,9-6.054,9-11.512C22.462,10.29,17.443,6.5,11.933,6.5Z" transform="translate(0 -6.5)" fill="#fff"/>
</svg>
