<svg xmlns="http://www.w3.org/2000/svg" width="20.753" height="21" viewBox="0 0 20.753 21">
  <path id="recycle" d="M8.037,1.75,6.027,4.739a.328.328,0,1,0,.545.366L8.593,2.1A2.43,2.43,0,0,1,10.565.656,2.43,2.43,0,0,1,12.535,2.1l3.619,6.3-2.573-.514a.328.328,0,0,0-.129.644l3.281.656a.374.374,0,0,0,.065.006.325.325,0,0,0,.145-.039c.006,0,.012,0,.018,0s.01-.01.017-.015a.308.308,0,0,0,.058-.051.284.284,0,0,0,.03-.033.338.338,0,0,0,.032-.066.284.284,0,0,0,.017-.045s0-.007,0-.01l.656-3.281a.328.328,0,1,0-.643-.128l-.485,2.425L13.1,1.768A3.048,3.048,0,0,0,10.565,0,3.031,3.031,0,0,0,8.037,1.75ZM6.627,18.716a.328.328,0,0,0-.328-.328H3.347A2.455,2.455,0,0,1,1.121,17.3a2.655,2.655,0,0,1,.2-2.666L4.935,8.3l1.06,2.651a.329.329,0,0,0,.3.205.333.333,0,0,0,.122-.024.329.329,0,0,0,.183-.426L5.292,7.425a.281.281,0,0,0-.028-.045.376.376,0,0,0-.025-.041.331.331,0,0,0-.078-.068s-.007-.008-.012-.01h0a.316.316,0,0,0-.119-.039H5.007a.283.283,0,0,0-.085,0l-3.281.656a.328.328,0,0,0,.129.644l2.574-.514L.747,14.3a3.287,3.287,0,0,0-.2,3.321,3.092,3.092,0,0,0,2.794,1.42H6.3a.33.33,0,0,0,.329-.329Zm13.955-1.1A3.241,3.241,0,0,0,20.4,14.35l-1.329-3a.328.328,0,1,0-.6.266l1.345,3.028a2.635,2.635,0,0,1,.2,2.643,2.459,2.459,0,0,1-2.231,1.085l-6.766.011,1.419-1.419a.328.328,0,1,0-.464-.464L10,18.471a.328.328,0,0,0-.1.238s0,0,0,.007a.321.321,0,0,0,.134.257L11.973,20.9a.328.328,0,1,0,.465-.464l-1.4-1.4,6.744-.011a3.1,3.1,0,0,0,2.8-1.414Z" transform="translate(-0.188)" fill="#fff"/>
</svg>
