<svg xmlns="http://www.w3.org/2000/svg" width="31.02" height="21.811" viewBox="0 0 31.02 21.811">
  <path id="brand_youtube" data-name="brand youtube" d="M45.3,67.413a3.9,3.9,0,0,0-2.742-2.76C40.143,64,30.443,64,30.443,64s-9.7,0-12.119.652a3.9,3.9,0,0,0-2.742,2.76,43.885,43.885,0,0,0,0,15.029,3.84,3.84,0,0,0,2.742,2.716c2.419.652,12.119.652,12.119.652s9.7,0,12.119-.652A3.84,3.84,0,0,0,45.3,82.442a43.885,43.885,0,0,0,0-15.029ZM27.27,79.54V70.315l8.107,4.612Z" transform="translate(-14.933 -64)" fill="#fff"/>
</svg>
