<svg xmlns="http://www.w3.org/2000/svg" width="33" height="32" viewBox="0 0 33 32">
  <path id="adjust" d="M31,0H2A2.512,2.512,0,0,0,0,2V30a2.512,2.512,0,0,0,2,2H31a2.512,2.512,0,0,0,2-2V2A2.512,2.512,0,0,0,31,0Zm1,30a1.769,1.769,0,0,1-1,1H2a1.769,1.769,0,0,1-1-1V2A1.769,1.769,0,0,1,2,1H31a1.769,1.769,0,0,1,1,1ZM16.5,5.5a2,2,0,1,0,2,2A2,2,0,0,0,16.5,5.5Zm0,3a1,1,0,1,1,1-1A1,1,0,0,1,16.5,8.5Zm8,13a2,2,0,1,0,2,2A2,2,0,0,0,24.5,21.5Zm0,3a1,1,0,1,1,1-1A1,1,0,0,1,24.5,24.5Zm-16-8a2,2,0,1,0,2,2A2,2,0,0,0,8.5,16.5Zm0,3a1,1,0,1,1,1-1A1,1,0,0,1,8.5,19.5Zm0-4.5a.5.5,0,0,0,.5-.5v-9a.5.5,0,0,0-1,0v9A.5.5,0,0,0,8.5,15Zm0,7a.5.5,0,0,0-.5.5v3a.5.5,0,0,0,1,0v-3A.5.5,0,0,0,8.5,22Zm8-11a.5.5,0,0,0-.5.5v14a.5.5,0,0,0,1,0v-14A.5.5,0,0,0,16.5,11Zm8,9a.5.5,0,0,0,.5-.5V5.5a.5.5,0,0,0-1,0v14A.5.5,0,0,0,24.5,20Z" fill="#040404"/>
</svg>
