<svg xmlns="http://www.w3.org/2000/svg" width="33.29" height="25.364" viewBox="0 0 33.29 25.364">
  <path id="browser" d="M32.894,7.926a.4.4,0,0,0-.4.4V24.175a.4.4,0,0,1-.4.4H1.189a.4.4,0,0,1-.4-.4V8.322a.4.4,0,0,0-.793,0V24.175a1.19,1.19,0,0,0,1.189,1.189H32.1a1.19,1.19,0,0,0,1.189-1.189V8.322A.4.4,0,0,0,32.894,7.926ZM32.1,0H1.189A1.19,1.19,0,0,0,0,1.189V5.945a.4.4,0,0,0,.4.4h32.5a.4.4,0,0,0,.4-.4V1.189A1.19,1.19,0,0,0,32.1,0Zm.4,5.548H.793V1.189a.4.4,0,0,1,.4-.4H32.1a.4.4,0,0,1,.4.4ZM13.871,22.193a.4.4,0,0,0,.4-.4V9.115a.4.4,0,0,0-.4-.4H3.567a.4.4,0,0,0-.4.4V21.8a.4.4,0,0,0,.4.4ZM3.963,9.511h9.511V21.4H3.963Zm13.871,2.378H29.723a.4.4,0,1,0,0-.793H17.834a.4.4,0,1,0,0,.793Zm0,3.963H29.723a.4.4,0,1,0,0-.793H17.834a.4.4,0,1,0,0,.793Zm0,3.963H29.723a.4.4,0,1,0,0-.793H17.834a.4.4,0,0,0,0,.793ZM2.378,3.17a.793.793,0,1,0,.793-.793A.793.793,0,0,0,2.378,3.17Zm3.17,0a.793.793,0,1,0,.793-.793A.793.793,0,0,0,5.548,3.17Zm3.17,0a.793.793,0,1,0,.793-.793A.793.793,0,0,0,8.719,3.17Z"/>
</svg>
