<svg xmlns="http://www.w3.org/2000/svg" width="42.949" height="43.232" viewBox="0 0 42.949 43.232">
  <path id="collapse" d="M17.74,12.282,10.76,5.3,5.374,10.69l6.98,6.978L7.12,22.9l15.757.008L22.843,7.179l-5.1,5.1Zm23.6,5.386,6.98-6.978L42.937,5.3l-6.98,6.978-5.1-5.1L30.82,22.91,46.577,22.9Zm-28.988,18.5L5.374,43.15l5.386,5.386,6.98-6.978,5.1,5.1.034-15.731-15.757.008Zm34.222-5.234L30.82,30.929l.034,15.731,5.1-5.1,6.98,6.978,5.386-5.386-6.98-6.978,5.234-5.234Z" transform="translate(-5.374 -5.304)"/>
</svg>
