<svg xmlns="http://www.w3.org/2000/svg" width="43" height="33" viewBox="0 0 43 33">
  <path id="download" d="M33.958,12.982C33.528,6.372,28.931,0,20.5,0a15.255,15.255,0,0,0-3.018.3.5.5,0,1,0,.2.981A14.156,14.156,0,0,1,20.5,1C29.088,1,33,7.739,33,14v1.5a.5.5,0,0,0,1,0V14c0-.005,0-.011,0-.016,3.063.264,7,2.932,7,8.516A8.173,8.173,0,0,1,33,31H9c-3.976,0-8-2.92-8-8.5C1,18.406,3.5,14,9,14h1.5a.5.5,0,0,0,0-1H9V11c0-3.727,2.3-6.042,6-6.042A5.957,5.957,0,0,1,21,11V23.993l-4.16-3.86a.5.5,0,1,0-.68.732l4.516,4.189a1.221,1.221,0,0,0,.827.445,1.189,1.189,0,0,0,.808-.433l4.529-4.2a.5.5,0,1,0-.68-.732L22,23.993V11a6.946,6.946,0,0,0-7-7.042c-4.252,0-7,2.764-7,7.042v2.051c-5.255.508-8,5-8,9.449C0,27.1,3.154,32,9,32H33c5.047,0,9-4.173,9-9.5C42,16.2,37.443,13.222,33.958,12.982Z" transform="translate(0.5 0.5)" stroke="#95989a" stroke-width="1"/>
</svg>
