<svg xmlns="http://www.w3.org/2000/svg" width="40" height="45.714" viewBox="0 0 40 45.714">
  <path id="file-empty" d="M40.116,10.227a40.55,40.55,0,0,0-3.891-4.451,40.267,40.267,0,0,0-4.451-3.891C29.47.2,28.354,0,27.714,0H5.571A3.575,3.575,0,0,0,2,3.571V42.143a3.576,3.576,0,0,0,3.571,3.571H38.429A3.576,3.576,0,0,0,42,42.143V14.286c0-.64-.2-1.757-1.884-4.059ZM34.2,7.8a39.048,39.048,0,0,1,3.24,3.633H30.571V4.556A39.048,39.048,0,0,1,34.2,7.8Zm4.939,34.347a.724.724,0,0,1-.714.714H5.571a.724.724,0,0,1-.714-.714V3.571a.724.724,0,0,1,.714-.714H27.714v10a1.429,1.429,0,0,0,1.429,1.429h10Z" transform="translate(-2)"/>
</svg>
