<svg xmlns="http://www.w3.org/2000/svg" width="31.666" height="24.127" viewBox="0 0 31.666 24.127">
  <path id="focus" d="M6.409,0H1.131A1.132,1.132,0,0,0,0,1.131V5.655a.377.377,0,1,0,.754,0V1.131A.378.378,0,0,1,1.131.754H6.409a.377.377,0,1,0,0-.754ZM30.535,0H25.258a.377.377,0,1,0,0,.754h5.278a.378.378,0,0,1,.377.377V5.655a.377.377,0,1,0,.754,0V1.131A1.132,1.132,0,0,0,30.535,0Zm.754,18.1a.377.377,0,0,0-.377.377V23a.378.378,0,0,1-.377.377H25.258a.377.377,0,1,0,0,.754h5.278A1.132,1.132,0,0,0,31.666,23V18.472A.377.377,0,0,0,31.289,18.1ZM.377,18.1A.377.377,0,0,0,0,18.472V23a1.132,1.132,0,0,0,1.131,1.131H6.409a.377.377,0,1,0,0-.754H1.131A.378.378,0,0,1,.754,23V18.472A.377.377,0,0,0,.377,18.1Zm17.341-3.77a.377.377,0,0,0,.377-.377v-3.77a.377.377,0,0,0-.377-.377h-3.77a.377.377,0,0,0-.377.377v3.77a.377.377,0,0,0,.377.377Zm-3.393-3.77h3.016v3.016H14.325Z"/>
</svg>
