<svg id="images" xmlns="http://www.w3.org/2000/svg" width="43.517" height="38.682" viewBox="0 0 43.517 38.682">
  <path id="Path_1082" data-name="Path 1082" d="M41.1,4.835H38.682V2.418A2.425,2.425,0,0,0,36.264,0H2.418A2.425,2.425,0,0,0,0,2.418V31.429a2.425,2.425,0,0,0,2.418,2.418H4.835v2.418a2.425,2.425,0,0,0,2.418,2.418H41.1a2.425,2.425,0,0,0,2.418-2.418V7.253A2.425,2.425,0,0,0,41.1,4.835ZM4.835,7.253V31.429H2.422s0,0,0,0v-29s0,0,0,0H36.261s0,0,0,0V4.834H7.254A2.425,2.425,0,0,0,4.836,7.252h0ZM41.1,36.259s0,0,0,0H7.256s0,0,0,0v-29s0,0,0,0H41.095s0,0,0,0Z"/>
  <path id="Path_1083" data-name="Path 1083" d="M31.253,11.626A3.626,3.626,0,1,1,27.626,8,3.626,3.626,0,0,1,31.253,11.626Z" transform="translate(5.011 1.67)"/>
  <path id="Path_1084" data-name="Path 1084" d="M37.011,31.341H8V26.506L16.462,12l9.67,12.088H28.55l8.462-7.253Z" transform="translate(1.67 2.506)"/>
</svg>
