<svg xmlns="http://www.w3.org/2000/svg" width="15.996" height="22.409" viewBox="0 0 15.996 22.409">
  <path id="lamp5" d="M17.747,10.751c-1.25.421-4.022-.61-4.022-.61-3.248-1.457,1.22,4.546,1.22,4.546s.093,1.874.655,2.107c4.687-4.913,3.4-6.464,2.147-6.043ZM16.06,15.41c-.379,0-1.972-3.577-1.784-4.326,1.251.094,2.409.447,3.1.166,1.937-.657-.876,4.16-1.313,4.16Zm3.892,2.775C20.067,12.716,24,10.612,24,7.356c0-2.779-2.54-6.325-7.87-6.325S8,4.424,8,7.382c0,3.321,3.993,5.407,3.993,10.837h4.043s3.8-.034,3.914-.034Zm-7.143-.694c0-5.068-3.868-7.016-3.868-10.115,0-2.761,2.51-5.656,7.173-5.656s6.948,3.039,6.948,5.632c0,3.039-3.814,5.047-3.916,10.15l-3.111-.012H12.809Zm6.7,1.493h-7c-.276,0-.5.168-.5.374s.224.374.5.374h7c.275,0,.5-.168.5-.374S19.78,18.983,19.5,18.983Zm0,1.5h-7c-.276,0-.5.168-.5.374s.224.374.5.374h7c.275,0,.5-.168.5-.374S19.78,20.48,19.5,20.48ZM13,22v.674a.9.9,0,0,0,.992.767H18.02a.9.9,0,0,0,.992-.767A3.081,3.081,0,0,0,18.95,22H13Z" transform="translate(-8.002 -1.031)" fill="#fff"/>
</svg>
