<svg xmlns="http://www.w3.org/2000/svg" width="32" height="32" viewBox="0 0 32 32">
  <path id="picture" d="M1.5,32h29A1.5,1.5,0,0,0,32,30.5V1.5A1.5,1.5,0,0,0,30.5,0H1.5A1.5,1.5,0,0,0,0,1.5v29A1.5,1.5,0,0,0,1.5,32ZM1,1.5A.5.5,0,0,1,1.5,1h29a.5.5,0,0,1,.5.5v29a.5.5,0,0,1-.5.5H1.5a.5.5,0,0,1-.5-.5Zm19.5,11a2,2,0,1,0-2-2A2,2,0,0,0,20.5,12.5Zm0-3a1,1,0,1,1-1,1A1,1,0,0,1,20.5,9.5ZM4.5,25h23a.5.5,0,0,0,.5-.5V4.5a.5.5,0,0,0-.5-.5H4.5a.5.5,0,0,0-.5.5v20A.5.5,0,0,0,4.5,25ZM5,24V18.362a.49.49,0,0,0,.067-.045L10.183,13.2a.7.7,0,0,1,.972,0l7.521,7.521a.5.5,0,0,0,.7.008l3.866-3.672a.684.684,0,0,1,.486-.2.673.673,0,0,1,.471.187L27,20.095h0V24H5ZM27,5V18.618l-2.081-2.266a1.669,1.669,0,0,0-1.191-.495h0a1.67,1.67,0,0,0-1.185.486l-3.5,3.328-7.176-7.177a1.727,1.727,0,0,0-2.386,0L5,16.971V5H27Z"/>
</svg>
