<svg xmlns="http://www.w3.org/2000/svg" width="20.409" height="20.409" viewBox="0 0 20.409 20.409">
  <path id="trashcan" d="M13.394,17.858a.637.637,0,0,0,.638-.638V8.291a.638.638,0,1,0-1.276,0V17.22A.637.637,0,0,0,13.394,17.858Zm-6.378,0a.638.638,0,0,0,.638-.638V8.291a.638.638,0,0,0-1.276,0V17.22A.638.638,0,0,0,7.016,17.858ZM18.5,3.827H15.945V2.551A2.551,2.551,0,0,0,13.394,0H7.016A2.551,2.551,0,0,0,4.465,2.551V3.827H1.913L0,5.74a.638.638,0,0,0,.638.638H2.551V19.134a1.276,1.276,0,0,0,1.276,1.276H16.582a1.276,1.276,0,0,0,1.276-1.276V6.378h1.913a.637.637,0,0,0,.638-.638ZM6.378,2.551A1.276,1.276,0,0,1,7.653,1.276h5.1a1.276,1.276,0,0,1,1.276,1.276V3.827H6.378ZM16.582,18.5a.637.637,0,0,1-.638.638H4.465a.638.638,0,0,1-.638-.638V6.378H16.582ZM10.2,17.858a.637.637,0,0,0,.638-.638V8.291a.638.638,0,0,0-1.276,0V17.22A.637.637,0,0,0,10.2,17.858Z" fill="#fff"/>
</svg>
