<svg xmlns="http://www.w3.org/2000/svg" width="29.195" height="23.712" viewBox="0 0 29.195 23.712">
  <path id="brand_twitter" data-name="brand twitter" d="M26.194,53.991c.019.259.019.519.019.778,0,7.91-6.021,17.024-17.024,17.024A16.909,16.909,0,0,1,0,69.108a12.381,12.381,0,0,0,1.445.074,11.983,11.983,0,0,0,7.428-2.556,5.994,5.994,0,0,1-5.595-4.15,7.545,7.545,0,0,0,1.13.093,6.328,6.328,0,0,0,1.575-.2,5.984,5.984,0,0,1-4.8-5.872v-.074a6.026,6.026,0,0,0,2.7.759,5.992,5.992,0,0,1-1.852-8,17.008,17.008,0,0,0,12.338,6.261,6.755,6.755,0,0,1-.148-1.371,5.989,5.989,0,0,1,10.355-4.094,11.78,11.78,0,0,0,3.8-1.445,5.967,5.967,0,0,1-2.631,3.3A12,12,0,0,0,29.2,50.9,12.862,12.862,0,0,1,26.194,53.991Z" transform="translate(0 -48.082)" fill="#fff"/>
</svg>
