<svg xmlns="http://www.w3.org/2000/svg" width="42" height="32" viewBox="0 0 42 32">
  <path id="upload" d="M33.958,12.988C33.531,6.376,28.933,0,20.5,0A13.724,13.724,0,0,0,6.524,13.384C2.3,14.7,0,19.213,0,22.5,0,27.561,4.206,32,9,32h6.5a.5.5,0,0,0,0-1H9c-4.262,0-8-3.972-8-8.5C1,19.449,3.674,14,9,14h1.5a.5.5,0,0,0,0-1H9a8.4,8.4,0,0,0-1.459.139A12.734,12.734,0,0,1,20.5,1C29.088,1,33,7.739,33,14v1.5a.5.5,0,0,0,1,0V13.991A8.608,8.608,0,0,1,41,22.5c0,3.826-3.691,8.5-8,8.5H25.5c-3.238,0-4.5-1.262-4.5-4.5V12.783l4.078,4.07a.5.5,0,1,0,.708-.706l-4.461-4.452a.987.987,0,0,0-1.648,0l-4.461,4.452a.5.5,0,1,0,.707.707L20,12.783V26.5c0,3.8,1.7,5.5,5.5,5.5H33c4.847,0,9-5.224,9-9.5C42,17.333,37.777,13.292,33.958,12.988Z"/>
</svg>
