<svg xmlns="http://www.w3.org/2000/svg" width="24.333" height="24.333" viewBox="0 0 24.333 24.333">
  <path id="world" d="M12.167,0A12.167,12.167,0,1,0,24.333,12.167,12.166,12.166,0,0,0,12.167,0ZM22.744,11.774H18.037a15.638,15.638,0,0,0-.9-4.92A12.822,12.822,0,0,0,20.069,5.13a10.544,10.544,0,0,1,2.675,6.645ZM11.733,22.742a12.51,12.51,0,0,1-3.2-4.135,12.164,12.164,0,0,1,3.241-.533v4.67l-.042,0ZM12.6,1.592A12.672,12.672,0,0,1,16.1,6.4a12.139,12.139,0,0,1-3.546.644V1.59Zm1.308.133A10.568,10.568,0,0,1,19.53,4.562,12.008,12.008,0,0,1,16.839,6.13a13.8,13.8,0,0,0-2.933-4.405ZM11.774,1.59V7.044A12.16,12.16,0,0,1,8.228,6.4a12.672,12.672,0,0,1,3.506-4.809l.041,0ZM7.493,6.131A12.037,12.037,0,0,1,4.8,4.563a10.565,10.565,0,0,1,5.623-2.837A13.788,13.788,0,0,0,7.493,6.131Zm.439.993a12.9,12.9,0,0,0,3.842.706v3.944H7.081A14.852,14.852,0,0,1,7.932,7.124Zm3.842,5.435v4.729a12.882,12.882,0,0,0-3.563.6,14.746,14.746,0,0,1-1.13-5.333h4.693ZM10.426,22.608a10.543,10.543,0,0,1-5.137-2.4,11.93,11.93,0,0,1,2.5-1.334,13.593,13.593,0,0,0,2.635,3.73Zm2.133.136v-4.67a12.17,12.17,0,0,1,3.241.533,12.52,12.52,0,0,1-3.2,4.135l-.042,0Zm3.983-3.866a12.026,12.026,0,0,1,2.5,1.334,10.55,10.55,0,0,1-5.137,2.4A13.61,13.61,0,0,0,16.542,18.878Zm-.42-.986a12.892,12.892,0,0,0-3.563-.6V12.559h4.693a14.762,14.762,0,0,1-1.13,5.333Zm-3.563-6.118V7.83a12.9,12.9,0,0,0,3.842-.7,14.9,14.9,0,0,1,.851,4.65H12.559ZM4.265,5.13A12.833,12.833,0,0,0,7.2,6.854a15.638,15.638,0,0,0-.9,4.92H1.59A10.541,10.541,0,0,1,4.265,5.13ZM1.59,12.559H6.3a15.483,15.483,0,0,0,1.18,5.6A12.74,12.74,0,0,0,4.7,19.677,10.568,10.568,0,0,1,1.59,12.559Zm18.045,7.117a12.76,12.76,0,0,0-2.778-1.516,15.483,15.483,0,0,0,1.181-5.6h4.707A10.568,10.568,0,0,1,19.635,19.676Z"/>
</svg>
